<?xml version="1.0" standalone="no"?>
<!DOCTYPE svg PUBLIC "-//W3C//DTD SVG 20010904//EN"
 "http://www.w3.org/TR/2001/REC-SVG-20010904/DTD/svg10.dtd">
<svg version="1.0" xmlns="http://www.w3.org/2000/svg"
 width="674.000000pt" height="570.000000pt" viewBox="0 0 674.000000 570.000000"
 preserveAspectRatio="xMidYMid meet">

<g transform="translate(0.000000,570.000000) scale(0.100000,-0.100000)"
fill="#000000" stroke="none">
<path d="M2360 4815 c0 -51 3 -65 15 -65 9 0 15 9 15 25 0 14 5 25 10 25 6 0
16 -11 22 -25 6 -14 17 -25 25 -25 11 0 11 4 2 21 -8 16 -8 27 1 44 20 37 -2
65 -50 65 l-40 0 0 -65z m70 25 c0 -13 -7 -20 -20 -20 -13 0 -20 7 -20 20 0
13 7 20 20 20 13 0 20 -7 20 -20z"/>
<path d="M2790 4815 c0 -51 3 -65 15 -65 12 0 15 14 15 65 0 51 -3 65 -15 65
-12 0 -15 -14 -15 -65z"/>
<path d="M2840 4853 c-10 -12 -11 -18 -2 -21 7 -2 12 -19 12 -38 0 -34 22 -56
38 -39 4 4 1 10 -5 12 -17 6 -17 60 -1 65 9 3 8 9 -4 21 -20 20 -19 20 -38 0z"/>
<path d="M2484 4825 c-20 -31 -10 -63 22 -71 27 -7 54 1 54 15 0 6 -13 8 -30
5 -19 -4 -30 -2 -30 5 0 6 14 11 30 11 22 0 30 5 30 18 0 44 -50 56 -76 17z
m56 -5 c0 -5 -9 -10 -20 -10 -11 0 -20 5 -20 10 0 6 9 10 20 10 11 0 20 -4 20
-10z"/>
<path d="M2590 4835 c-16 -19 3 -45 31 -45 11 0 19 -5 19 -11 0 -7 -11 -9 -30
-6 -23 5 -28 3 -23 -9 9 -25 67 -14 71 13 3 17 -3 24 -22 29 -14 3 -26 11 -26
16 0 6 11 7 25 4 27 -7 35 8 9 18 -25 10 -41 7 -54 -9z"/>
<path d="M2680 4811 c0 -45 13 -58 58 -58 32 0 32 1 32 49 0 56 -17 65 -22 11
-2 -27 -8 -39 -20 -41 -15 -3 -18 4 -18 37 0 30 -4 41 -15 41 -11 0 -15 -11
-15 -39z"/>
<path d="M2914 4836 c-9 -24 3 -46 26 -46 11 0 20 -5 20 -11 0 -7 -10 -9 -26
-5 -19 5 -25 3 -22 -6 7 -20 53 -21 68 -2 12 14 12 18 -5 30 -10 8 -25 14 -32
14 -7 0 -13 5 -13 11 0 7 10 9 26 5 19 -5 25 -3 22 6 -7 20 -57 22 -64 4z"/>
<path d="M2404 4259 c-11 -6 -28 -23 -37 -39 -15 -25 -17 -71 -17 -414 0 -255
4 -393 11 -409 6 -13 23 -31 39 -40 26 -16 159 -17 1709 -17 1187 0 1687 3
1704 11 56 25 57 33 57 453 0 255 -4 393 -11 409 -6 13 -23 31 -39 40 -26 16
-158 17 -1712 16 -1110 0 -1690 -4 -1704 -10z"/>
</g>
</svg>
