<?xml version="1.0" standalone="no"?>
<!DOCTYPE svg PUBLIC "-//W3C//DTD SVG 20010904//EN"
 "http://www.w3.org/TR/2001/REC-SVG-20010904/DTD/svg10.dtd">
<svg version="1.0" xmlns="http://www.w3.org/2000/svg"
 width="656.000000pt" height="570.000000pt" viewBox="0 0 656.000000 570.000000"
 preserveAspectRatio="xMidYMid meet">

<g transform="translate(0.000000,570.000000) scale(0.100000,-0.100000)"
fill="#000000" stroke="none">
<path d="M880 4815 c0 -51 3 -65 15 -65 9 0 15 9 15 25 0 14 5 25 10 25 6 0
16 -11 22 -25 6 -14 17 -25 25 -25 11 0 11 4 2 21 -8 16 -8 27 1 44 20 37 -2
65 -50 65 l-40 0 0 -65z m70 25 c0 -13 -7 -20 -20 -20 -13 0 -20 7 -20 20 0
13 7 20 20 20 13 0 20 -7 20 -20z"/>
<path d="M1310 4815 c0 -51 3 -65 15 -65 12 0 15 14 15 65 0 51 -3 65 -15 65
-12 0 -15 -14 -15 -65z"/>
<path d="M1360 4853 c-10 -12 -11 -18 -2 -21 7 -2 12 -19 12 -38 0 -34 22 -56
38 -39 4 4 1 10 -5 12 -17 6 -17 60 -1 65 9 3 8 9 -4 21 -20 20 -19 20 -38 0z"/>
<path d="M1004 4825 c-20 -31 -10 -63 22 -71 27 -7 54 1 54 15 0 6 -13 8 -30
5 -19 -4 -30 -2 -30 5 0 6 14 11 30 11 22 0 30 5 30 18 0 44 -50 56 -76 17z
m56 -5 c0 -5 -9 -10 -20 -10 -11 0 -20 5 -20 10 0 6 9 10 20 10 11 0 20 -4 20
-10z"/>
<path d="M1110 4835 c-16 -19 3 -45 31 -45 11 0 19 -5 19 -11 0 -7 -11 -9 -30
-6 -23 5 -28 3 -23 -9 9 -25 67 -14 71 13 3 17 -3 24 -22 29 -14 3 -26 11 -26
16 0 6 11 7 25 4 27 -7 35 8 9 18 -25 10 -41 7 -54 -9z"/>
<path d="M1200 4811 c0 -45 13 -58 58 -58 32 0 32 1 32 49 0 56 -17 65 -22 11
-2 -27 -8 -39 -20 -41 -15 -3 -18 4 -18 37 0 30 -4 41 -15 41 -11 0 -15 -11
-15 -39z"/>
<path d="M1434 4836 c-9 -24 3 -46 26 -46 11 0 20 -5 20 -11 0 -7 -10 -9 -26
-5 -19 5 -25 3 -22 -6 7 -20 53 -21 68 -2 12 14 12 18 -5 30 -10 8 -25 14 -32
14 -7 0 -13 5 -13 11 0 7 10 9 26 5 19 -5 25 -3 22 6 -7 20 -57 22 -64 4z"/>
<path d="M1041 4028 c0 -36 3 -47 8 -33 4 11 19 22 32 25 17 4 24 13 24 30 0
21 -6 26 -32 28 l-33 3 1 -53z m57 20 c3 -13 -3 -18 -22 -18 -20 0 -26 5 -26
21 0 15 5 20 22 17 13 -2 24 -11 26 -20z"/>
<path d="M1414 4053 c9 -18 16 -42 16 -55 1 -17 4 -14 14 15 8 20 19 44 26 52
7 8 8 15 4 15 -5 0 -15 -10 -23 -22 l-13 -21 -20 24 -19 24 15 -32z"/>
<path d="M3020 4034 c0 -45 2 -50 24 -52 34 -2 52 22 38 53 -7 14 -17 25 -23
25 -8 0 -6 -7 5 -19 19 -21 11 -53 -13 -49 -11 2 -16 15 -17 41 -2 57 -14 58
-14 1z"/>
<path d="M3900 4064 c0 -10 -6 -13 -19 -9 -25 8 -45 -19 -37 -50 5 -20 13 -25
36 -25 29 0 30 1 30 50 0 28 -2 50 -5 50 -3 0 -5 -7 -5 -16z m-11 -32 c12 -23
-2 -47 -23 -39 -24 10 -20 57 5 57 5 0 13 -8 18 -18z"/>
<path d="M1140 4049 c-12 -8 -10 -9 8 -4 14 4 22 2 22 -5 0 -7 -9 -14 -20 -17
-11 -3 -20 -14 -20 -24 0 -14 7 -19 30 -19 26 0 30 4 30 28 0 25 -15 52 -29
52 -4 0 -13 -5 -21 -11z m35 -50 c-8 -12 -35 -12 -35 0 0 11 22 20 33 14 4 -2
5 -9 2 -14z"/>
<path d="M1213 4020 c0 -25 2 -35 4 -22 2 12 2 32 0 45 -2 12 -4 2 -4 -23z"/>
<path d="M1241 4020 l1 -45 8 35 c5 20 5 39 -1 45 -5 5 -9 -8 -8 -35z"/>
<path d="M1277 4049 c6 -8 13 -27 16 -44 4 -23 4 -20 3 9 -1 25 -6 41 -16 44
-12 4 -13 2 -3 -9z"/>
<path d="M1490 4045 c-26 -31 13 -82 44 -56 19 16 21 42 4 59 -16 16 -33 15
-48 -3z m47 -39 c-8 -20 -36 -21 -43 -1 -4 8 0 22 7 31 11 13 14 13 27 0 8 -8
12 -22 9 -30z"/>
<path d="M1574 4020 c1 -30 5 -35 29 -38 25 -3 27 -1 26 35 l-1 38 -9 -32 c-5
-18 -16 -33 -24 -33 -8 0 -15 13 -18 33 -4 32 -4 32 -3 -3z"/>
<path d="M1695 4049 c-5 -8 -1 -9 14 -4 13 4 21 2 21 -5 0 -7 -9 -14 -20 -17
-31 -8 -26 -43 6 -43 23 0 25 3 22 37 -3 38 -28 57 -43 32z m35 -44 c0 -8 -7
-15 -15 -15 -26 0 -18 20 13 29 1 1 2 -6 2 -14z"/>
<path d="M1771 4016 c2 -34 3 -36 6 -11 3 17 9 35 14 41 5 7 3 11 -6 11 -11 0
-15 -11 -14 -41z"/>
<path d="M1826 4044 c-9 -8 -16 -21 -16 -28 0 -29 51 -49 65 -26 4 7 -2 9 -19
4 -16 -4 -26 -2 -26 5 0 6 11 11 25 11 27 0 33 18 13 38 -16 16 -23 15 -42 -4z
m42 -12 c2 -7 -6 -12 -17 -12 -21 0 -27 11 -14 24 9 9 26 2 31 -12z"/>
<path d="M1945 4049 c-5 -8 -1 -9 14 -4 30 9 27 -13 -4 -25 -31 -12 -23 -40
12 -40 22 0 24 4 21 37 -3 38 -28 57 -43 32z m35 -44 c0 -8 -7 -15 -15 -15
-26 0 -18 20 13 29 1 1 2 -6 2 -14z"/>
<path d="M2033 4053 c-8 -3 -12 -20 -12 -41 l2 -37 6 34 c8 43 28 51 37 14 10
-46 12 -50 13 -17 1 16 -4 35 -11 42 -13 13 -16 13 -35 5z"/>
<path d="M2154 4052 c-30 -20 -18 -72 16 -72 10 0 21 4 24 9 3 4 -6 6 -19 3
-15 -2 -25 0 -25 7 0 6 11 11 25 11 27 0 33 18 13 38 -14 14 -19 14 -34 4z
m34 -20 c2 -7 -6 -12 -17 -12 -21 0 -27 11 -14 24 9 9 26 2 31 -12z"/>
<path d="M2290 4045 c-24 -29 14 -85 41 -58 9 9 7 11 -9 6 -15 -3 -24 0 -28
11 -8 21 13 46 33 39 11 -4 14 -2 9 5 -10 16 -31 15 -46 -3z"/>
<path d="M2370 4046 c-18 -22 -9 -60 16 -64 31 -4 50 23 36 53 -13 28 -34 32
-52 11z m39 -10 c14 -17 4 -46 -15 -46 -18 0 -28 24 -20 45 7 19 20 19 35 1z"/>
<path d="M2463 4053 c-8 -3 -12 -20 -12 -41 l2 -37 6 33 c8 44 25 45 30 2 l4
-35 6 34 c8 49 29 51 34 4 l4 -38 -1 40 c-1 37 -3 40 -31 41 -16 0 -36 -1 -42
-3z"/>
<path d="M2571 4016 c2 -40 2 -41 8 -8 3 18 11 33 16 33 6 0 13 -15 16 -33 l6
-33 4 35 c2 23 9 35 19 35 9 0 17 -13 21 -35 l6 -35 2 32 c1 38 -11 47 -61 49
l-38 0 1 -40z"/>
<path d="M2702 4051 c-20 -12 -11 -65 12 -69 10 -2 22 0 28 6 6 6 0 8 -16 5
-15 -3 -26 -1 -26 6 0 6 11 11 25 11 27 0 33 18 13 38 -14 14 -19 15 -36 3z
m36 -19 c2 -7 -6 -12 -17 -12 -21 0 -27 11 -14 24 9 9 26 2 31 -12z"/>
<path d="M2771 4015 c2 -33 3 -35 6 -10 2 17 11 35 20 42 13 10 13 12 -6 10
-18 -1 -21 -7 -20 -42z"/>
<path d="M2830 4046 c-27 -33 12 -88 41 -59 6 6 1 9 -13 9 -14 -1 -24 6 -26
18 -6 27 13 42 33 26 8 -7 15 -8 15 -2 0 5 -7 13 -16 16 -21 8 -20 8 -34 -8z"/>
<path d="M2912 4051 c-20 -12 -11 -65 12 -69 10 -2 22 0 28 6 6 6 0 8 -16 5
-15 -3 -26 -1 -26 6 0 6 11 11 25 11 27 0 33 18 13 38 -14 14 -19 15 -36 3z
m36 -19 c2 -7 -6 -12 -17 -12 -21 0 -27 11 -14 24 9 9 26 2 31 -12z"/>
<path d="M3194 4045 c-7 -18 3 -35 22 -35 8 0 14 -5 14 -11 0 -6 -9 -9 -20 -6
-11 3 -20 1 -20 -5 0 -5 10 -8 22 -6 30 4 35 34 8 41 -11 3 -20 10 -20 17 0 7
8 9 21 5 15 -5 19 -4 15 4 -10 16 -36 14 -42 -4z"/>
<path d="M3263 4020 c0 -25 2 -35 4 -22 2 12 2 32 0 45 -2 12 -4 2 -4 -23z"/>
<path d="M3308 4053 c-14 -3 -18 -14 -17 -41 2 -29 3 -31 6 -10 2 14 11 32 18
38 16 13 20 8 29 -40 2 -14 3 -7 3 14 -2 40 -9 47 -39 39z"/>
<path d="M3386 4044 c-9 -8 -16 -21 -16 -28 0 -29 51 -49 65 -26 4 7 -2 9 -19
4 -16 -4 -26 -2 -26 5 0 6 11 11 25 11 27 0 33 18 13 38 -16 16 -23 15 -42 -4z
m44 -15 c0 -5 -9 -9 -20 -9 -19 0 -26 11 -14 23 8 8 34 -3 34 -14z"/>
<path d="M3464 4045 c-7 -18 3 -35 22 -35 8 0 14 -5 14 -11 0 -6 -9 -9 -20 -6
-11 3 -20 1 -20 -5 0 -5 10 -8 22 -6 30 4 35 34 8 41 -11 3 -20 10 -20 17 0 7
8 9 21 5 15 -5 19 -4 15 4 -10 16 -36 14 -42 -4z"/>
<path d="M3543 4053 c-20 -7 -15 -31 7 -38 26 -8 26 -29 0 -22 -11 3 -18 1
-14 -4 9 -15 41 -10 48 6 4 11 -3 19 -20 25 -14 6 -22 15 -19 21 4 6 14 8 22
5 8 -3 11 -1 8 4 -7 11 -13 11 -32 3z"/>
<path d="M3690 4050 c-12 -8 -10 -10 9 -8 18 2 24 -3 27 -20 3 -14 -2 -25 -11
-29 -22 -8 -33 6 -15 17 12 8 12 10 -3 10 -30 0 -16 -35 16 -38 25 -3 27 -1
27 31 0 23 -6 37 -16 41 -19 7 -16 8 -34 -4z"/>
<path d="M3760 4021 c0 -23 2 -41 4 -41 8 0 12 71 4 76 -4 3 -8 -13 -8 -35z"/>
<path d="M3797 4049 c6 -8 13 -27 16 -44 4 -23 4 -20 3 9 -1 25 -6 41 -16 44
-12 4 -13 2 -3 -9z"/>
<path d="M4009 4030 l-12 -33 -13 29 c-16 36 -18 27 -3 -15 9 -24 8 -35 -2
-48 -12 -14 -12 -16 1 -11 16 5 55 97 45 106 -3 3 -10 -10 -16 -28z"/>
<path d="M4050 4045 c-26 -31 13 -82 44 -56 19 16 21 42 4 59 -16 16 -33 15
-48 -3z m47 -39 c-8 -20 -36 -21 -43 -1 -4 8 0 22 7 31 11 13 14 13 27 0 8 -8
12 -22 9 -30z"/>
<path d="M4134 4020 c1 -31 4 -35 29 -36 25 -1 27 2 26 35 -1 36 -1 36 -8 6
-9 -43 -39 -45 -44 -3 l-4 33 1 -35z"/>
<path d="M3113 4018 c2 -28 6 -34 30 -36 25 -3 27 -1 27 32 0 20 -4 36 -10 36
-5 0 -10 -13 -10 -30 0 -19 -5 -30 -14 -30 -8 0 -17 13 -20 30 -6 30 -6 30 -3
-2z"/>
<path d="M2228 4023 c6 -2 18 -2 25 0 6 3 1 5 -13 5 -14 0 -19 -2 -12 -5z"/>
<path d="M3606 3973 c-6 -14 -5 -15 5 -6 7 7 10 15 7 18 -3 3 -9 -2 -12 -12z"/>
<path d="M1733 3830 c0 -30 2 -43 4 -27 2 15 2 39 0 55 -2 15 -4 2 -4 -28z"/>
<path d="M1773 3830 c0 -30 2 -43 4 -27 2 15 2 39 0 55 -2 15 -4 2 -4 -28z"/>
<path d="M2440 3865 c0 -8 -6 -12 -12 -10 -23 8 -40 -11 -36 -41 2 -24 8 -29
31 -30 26 -1 27 1 27 47 0 27 -2 49 -5 49 -3 0 -5 -7 -5 -15z m-5 -46 c0 -15
-7 -25 -17 -27 -13 -3 -18 3 -18 21 0 13 3 27 7 31 13 12 28 -1 28 -25z"/>
<path d="M2883 3830 c0 -30 2 -43 4 -27 2 15 2 39 0 55 -2 15 -4 2 -4 -28z"/>
<path d="M2913 3830 c0 -30 2 -43 4 -27 2 15 2 39 0 55 -2 15 -4 2 -4 -28z"/>
<path d="M3363 3830 c0 -30 2 -43 4 -28 2 14 11 32 18 38 16 13 20 8 29 -40 2
-14 3 -7 3 15 -2 35 -5 40 -24 38 -13 -2 -23 4 -26 15 -3 9 -5 -8 -4 -38z"/>
<path d="M1318 3864 c-10 -9 8 -77 20 -80 7 -1 8 0 2 3 -14 7 -13 60 2 65 8 3
6 6 -4 10 -9 4 -18 5 -20 2z"/>
<path d="M1408 3864 c-10 -10 8 -78 22 -82 12 -4 13 -2 3 9 -16 17 -17 56 -1
61 8 3 6 6 -4 10 -9 4 -18 5 -20 2z"/>
<path d="M2638 3864 c-10 -10 8 -78 22 -82 12 -4 13 -2 3 9 -16 17 -17 56 -1
61 8 3 6 6 -4 10 -9 4 -18 5 -20 2z"/>
<path d="M3317 3863 c-6 -11 4 -83 12 -83 7 0 6 78 -2 86 -3 3 -7 2 -10 -3z"/>
<path d="M3897 3863 c-2 -5 -2 -25 0 -45 4 -27 10 -38 22 -38 13 0 13 2 2 9
-9 6 -12 20 -9 40 4 30 -5 51 -15 34z"/>
<path d="M1073 3829 l-6 -31 -13 28 c-15 36 -18 16 -3 -23 l11 -28 13 30 13
30 7 -27 c10 -37 19 -35 32 7 6 20 7 35 2 35 -5 0 -9 -9 -9 -20 0 -11 -4 -20
-10 -20 -5 0 -10 9 -10 19 0 34 -20 34 -27 0z"/>
<path d="M1165 3851 c-3 -6 0 -8 8 -5 8 3 18 1 22 -5 3 -6 -5 -15 -20 -21 -30
-11 -29 -33 1 -38 19 -4 19 -4 0 11 -18 14 -18 14 2 19 16 4 22 0 25 -16 3
-11 4 -3 4 19 -2 28 -7 41 -19 43 -9 2 -19 -2 -23 -7z"/>
<path d="M1248 3853 c-14 -3 -18 -14 -17 -41 2 -29 3 -31 6 -10 2 14 11 32 18
38 16 13 20 8 29 -40 2 -14 3 -7 3 14 -2 40 -9 47 -39 39z"/>
<path d="M1468 3849 c-35 -20 -11 -75 29 -67 22 4 29 43 13 64 -14 16 -19 17
-42 3z m37 -30 c0 -28 -29 -38 -39 -13 -7 19 11 47 28 41 6 -2 11 -14 11 -28z"/>
<path d="M1587 3853 c-13 -13 -7 -32 13 -38 11 -3 20 -11 20 -17 0 -6 -9 -8
-20 -5 -11 3 -20 1 -20 -5 0 -5 10 -8 22 -6 30 4 35 34 7 41 -11 3 -18 10 -15
16 4 6 14 7 23 4 11 -4 14 -3 9 5 -8 13 -29 16 -39 5z"/>
<path d="M1660 3846 c-27 -34 12 -88 43 -57 7 7 4 8 -10 5 -12 -3 -24 -1 -27
5 -5 7 3 11 18 11 19 0 26 5 26 19 0 10 -7 22 -16 25 -21 8 -20 8 -34 -8z m38
-14 c2 -7 -6 -12 -17 -12 -21 0 -27 11 -14 24 9 9 26 2 31 -12z"/>
<path d="M1879 3830 l-12 -33 -13 29 c-7 16 -13 24 -13 17 -1 -7 4 -23 10 -37
10 -20 9 -29 -2 -42 -12 -15 -12 -17 0 -13 15 5 55 98 46 107 -3 3 -10 -10
-16 -28z"/>
<path d="M1920 3845 c-26 -31 13 -82 44 -56 19 16 21 42 4 59 -16 16 -33 15
-48 -3z m47 -39 c-8 -20 -36 -21 -43 -1 -4 8 0 22 7 31 11 13 14 13 27 0 8 -8
12 -22 9 -30z"/>
<path d="M2004 3820 c1 -31 4 -35 29 -36 25 -1 27 2 26 35 -1 36 -1 36 -8 6
-9 -43 -39 -45 -44 -3 l-4 33 1 -35z"/>
<path d="M2081 3815 c2 -33 3 -35 6 -10 2 17 11 35 20 42 13 10 13 12 -6 10
-18 -1 -21 -7 -20 -42z"/>
<path d="M2171 3804 c1 -32 4 -49 6 -38 3 15 10 20 22 17 28 -7 46 22 33 52
-7 14 -17 25 -23 25 -8 0 -6 -7 5 -19 19 -21 11 -54 -13 -49 -10 2 -16 13 -16
30 0 14 -3 30 -7 34 -5 4 -7 -19 -7 -52z"/>
<path d="M2273 3853 c-8 -3 -12 -20 -12 -41 2 -34 2 -35 6 -7 3 17 9 36 15 43
11 13 10 13 -9 5z"/>
<path d="M2318 3849 c-35 -20 -11 -75 29 -67 22 4 29 43 13 64 -14 16 -19 17
-42 3z m37 -30 c0 -28 -29 -38 -39 -13 -7 19 11 47 28 41 6 -2 11 -14 11 -28z"/>
<path d="M2566 3844 c-19 -18 -19 -20 -6 -45 11 -20 45 -26 55 -9 4 7 -3 8
-20 4 -25 -6 -26 -4 -23 22 2 20 8 29 20 28 10 -1 15 2 12 7 -8 13 -21 11 -38
-7z"/>
<path d="M2692 3848 c-14 -14 2 -38 24 -38 8 0 14 -5 14 -11 0 -7 -10 -9 -26
-5 -17 5 -23 3 -19 -4 8 -14 42 -13 51 2 4 7 -2 18 -14 26 -29 19 -28 35 1 27
17 -5 19 -4 7 4 -19 14 -23 14 -38 -1z"/>
<path d="M2805 3849 c-5 -8 -1 -9 14 -4 30 9 27 -13 -4 -25 -31 -12 -23 -40
12 -40 22 0 24 4 21 37 -3 38 -28 57 -43 32z m35 -44 c0 -8 -7 -15 -15 -15
-26 0 -18 20 13 29 1 1 2 -6 2 -14z"/>
<path d="M2990 3845 c-17 -21 -4 -65 19 -65 30 0 46 26 33 55 -13 28 -34 32
-52 10z m39 -9 c14 -17 4 -46 -15 -46 -18 0 -28 24 -20 45 7 19 20 19 35 1z"/>
<path d="M3065 3847 c3 -11 8 -30 11 -43 8 -33 20 -30 33 7 15 43 13 51 -4 14
l-13 -30 -16 35 c-9 19 -14 27 -11 17z"/>
<path d="M3152 3851 c-20 -12 -11 -65 12 -69 10 -2 22 0 28 6 6 6 0 8 -16 5
-15 -3 -26 -1 -26 6 0 6 11 11 25 11 27 0 33 18 13 38 -14 14 -19 15 -36 3z
m36 -19 c2 -7 -6 -12 -17 -12 -21 0 -27 11 -14 24 9 9 26 2 31 -12z"/>
<path d="M3221 3815 c2 -33 3 -35 6 -10 2 17 11 35 20 42 13 10 13 12 -6 10
-18 -1 -21 -7 -20 -42z"/>
<path d="M3456 3844 c-9 -8 -16 -21 -16 -28 0 -29 51 -49 65 -26 4 7 -2 9 -19
4 -16 -4 -26 -2 -26 5 0 6 11 11 25 11 27 0 33 18 13 38 -16 16 -23 15 -42 -4z
m42 -12 c2 -7 -6 -12 -17 -12 -21 0 -27 11 -14 24 9 9 26 2 31 -12z"/>
<path d="M3576 3844 c-19 -18 -19 -20 -6 -45 11 -20 45 -26 55 -9 4 7 -3 8
-20 4 -25 -6 -26 -4 -23 22 2 20 8 29 20 28 10 -1 15 2 12 7 -8 13 -21 11 -38
-7z"/>
<path d="M3658 3849 c-35 -20 -11 -75 29 -67 22 4 29 43 13 64 -14 16 -19 17
-42 3z m37 -30 c0 -28 -29 -38 -39 -13 -7 19 11 47 28 41 6 -2 11 -14 11 -28z"/>
<path d="M3733 3825 c2 -36 5 -40 30 -41 25 -1 27 1 26 40 l-2 41 -6 -35 c-4
-22 -12 -35 -21 -35 -9 0 -18 13 -22 35 l-6 35 1 -40z"/>
<path d="M3811 3816 l2 -41 6 35 c4 22 12 35 21 35 9 0 18 -13 22 -35 l6 -35
-1 40 c-2 36 -5 40 -29 41 -26 1 -28 -1 -27 -40z"/>
<path d="M3958 3853 c-14 -3 -18 -14 -17 -41 1 -28 3 -31 6 -12 3 14 12 33 20
43 9 9 14 16 12 16 -2 -1 -12 -3 -21 -6z"/>
<path d="M2483 3818 c2 -28 6 -34 30 -36 25 -3 27 -1 27 32 0 20 -4 36 -10 36
-5 0 -10 -13 -10 -30 0 -19 -5 -30 -14 -30 -8 0 -17 13 -20 30 -6 30 -6 30 -3
-2z"/>
<path d="M4000 3843 c0 -6 5 -24 10 -39 8 -19 7 -31 -2 -42 -11 -12 -11 -14 1
-11 15 5 54 99 41 99 -4 0 -11 -12 -15 -27 l-8 -28 -13 30 c-7 17 -13 25 -14
18z"/>
<path d="M4070 3775 c0 -8 2 -15 4 -15 2 0 6 7 10 15 3 8 1 15 -4 15 -6 0 -10
-7 -10 -15z"/>
<path d="M2081 3673 c-5 -10 -5 -36 -1 -58 l8 -40 2 35 c1 19 3 45 6 58 5 26
-2 29 -15 5z"/>
<path d="M1041 3635 c-1 -49 0 -51 29 -53 24 -2 31 2 36 23 8 31 -12 58 -37
50 -11 -4 -19 0 -22 12 -3 10 -5 -5 -6 -32z m56 -29 c-4 -9 -13 -16 -21 -16
-19 0 -29 30 -15 47 11 12 14 12 27 -1 8 -8 12 -22 9 -30z"/>
<path d="M2410 3665 c0 -8 -6 -12 -12 -10 -23 8 -40 -11 -36 -41 2 -24 8 -29
31 -30 26 -1 27 1 27 47 0 27 -2 49 -5 49 -3 0 -5 -7 -5 -15z m-5 -46 c0 -15
-7 -25 -17 -27 -13 -3 -18 3 -18 21 0 13 3 27 7 31 13 12 28 -1 28 -25z"/>
<path d="M2571 3632 c-1 -52 -1 -53 27 -50 19 2 28 9 30 26 4 27 -16 55 -34
48 -7 -3 -15 3 -17 12 -3 9 -5 -7 -6 -36z m44 -13 c0 -15 -7 -25 -17 -27 -13
-3 -18 3 -18 21 0 13 3 27 7 31 13 12 28 -1 28 -25z"/>
<path d="M2912 3630 c1 -45 2 -48 7 -21 8 43 28 51 37 14 10 -46 12 -50 13
-17 1 32 -21 60 -38 50 -5 -4 -12 2 -14 11 -3 10 -5 -7 -5 -37z"/>
<path d="M3402 3630 c1 -45 2 -48 7 -21 8 43 28 51 37 14 10 -46 12 -50 13
-17 1 32 -21 60 -38 50 -5 -4 -12 2 -14 11 -3 10 -5 -7 -5 -37z"/>
<path d="M3690 3665 c0 -8 -6 -12 -12 -10 -23 8 -40 -11 -36 -41 2 -24 8 -29
31 -30 26 -1 27 1 27 47 0 27 -2 49 -5 49 -3 0 -5 -7 -5 -15z m-5 -46 c0 -15
-7 -25 -17 -27 -13 -3 -18 3 -18 21 0 13 3 27 7 31 13 12 28 -1 28 -25z"/>
<path d="M3733 3630 c0 -30 2 -43 4 -27 2 15 2 39 0 55 -2 15 -4 2 -4 -28z"/>
<path d="M4033 3630 c0 -30 2 -43 4 -27 2 15 2 39 0 55 -2 15 -4 2 -4 -28z"/>
<path d="M1212 3629 c4 -56 23 -62 22 -7 -1 23 -7 44 -13 46 -9 3 -11 -9 -9
-39z"/>
<path d="M2818 3664 c-10 -10 8 -78 22 -82 12 -4 13 -2 3 9 -16 17 -17 56 -1
61 8 3 6 6 -4 10 -9 4 -18 5 -20 2z"/>
<path d="M3227 3663 c-2 -5 -2 -25 0 -45 4 -27 10 -38 22 -38 13 0 13 2 2 9
-9 6 -12 20 -9 40 4 30 -5 51 -15 34z"/>
<path d="M1134 3620 c1 -31 4 -35 29 -36 25 -1 27 2 26 35 -1 36 -1 36 -8 6
-9 -43 -39 -45 -44 -3 l-4 33 1 -35z"/>
<path d="M1340 3629 l-13 -31 -13 29 c-16 35 -18 26 -3 -16 9 -24 8 -35 -2
-48 -12 -14 -12 -16 1 -11 8 2 23 26 33 53 20 53 17 74 -3 24z"/>
<path d="M1382 3648 c-25 -25 -6 -68 30 -68 22 0 35 45 18 65 -15 18 -32 19
-48 3z m45 -42 c-8 -20 -36 -21 -43 -1 -4 8 0 22 7 31 11 13 14 13 27 0 8 -8
12 -22 9 -30z"/>
<path d="M1464 3620 c1 -31 4 -35 29 -36 25 -1 27 2 26 35 -1 36 -1 36 -8 6
-9 -43 -39 -45 -44 -3 l-4 33 1 -35z"/>
<path d="M1590 3649 c-12 -8 -10 -9 8 -4 14 4 22 2 22 -5 0 -7 -9 -14 -20 -17
-11 -3 -20 -14 -20 -24 0 -14 7 -19 30 -19 26 0 30 4 30 28 0 25 -15 52 -29
52 -4 0 -13 -5 -21 -11z m30 -44 c0 -8 -7 -15 -15 -15 -26 0 -18 20 13 29 1 1
2 -6 2 -14z"/>
<path d="M1661 3616 c2 -34 3 -36 6 -11 3 17 9 35 14 41 5 7 3 11 -6 11 -11 0
-15 -11 -14 -41z"/>
<path d="M1716 3644 c-19 -18 -19 -20 -6 -45 11 -19 44 -26 54 -10 3 4 -6 6
-19 3 -15 -2 -25 0 -25 7 0 6 11 11 25 11 27 0 33 18 13 38 -16 16 -23 15 -42
-4z m42 -12 c2 -7 -6 -12 -17 -12 -21 0 -27 11 -14 24 9 9 26 2 31 -12z"/>
<path d="M1842 3651 c-20 -12 -11 -65 12 -69 10 -2 23 1 30 8 8 9 4 10 -16 5
-25 -6 -28 -4 -28 18 0 32 16 43 38 25 15 -12 16 -11 3 5 -15 19 -20 20 -39 8z"/>
<path d="M1915 3644 c-19 -19 -16 -43 6 -57 37 -23 69 29 37 61 -16 16 -23 15
-43 -4z m40 -25 c0 -28 -29 -38 -39 -13 -7 19 11 47 28 41 6 -2 11 -14 11 -28z"/>
<path d="M1991 3616 l2 -41 6 35 c4 22 12 35 21 35 9 0 18 -13 22 -35 l6 -35
-1 40 c-2 36 -5 40 -29 41 -26 1 -28 -1 -27 -40z"/>
<path d="M2168 3628 c-4 -42 -30 -44 -40 -3 -6 29 -6 29 -5 -5 2 -31 5 -35 30
-36 25 -1 27 2 27 37 0 47 -8 51 -12 7z"/>
<path d="M2211 3646 c-9 -11 -6 -18 16 -36 l28 -21 -30 6 c-23 5 -27 4 -19 -5
14 -14 46 -10 51 7 3 7 -7 18 -21 24 -26 12 -26 35 1 25 8 -3 11 -1 8 4 -9 14
-21 12 -34 -4z"/>
<path d="M2286 3644 c-19 -19 -20 -36 -4 -52 14 -14 44 -16 52 -3 3 4 -6 6
-19 3 -15 -2 -25 0 -25 7 0 6 11 11 25 11 27 0 33 18 13 38 -16 16 -23 15 -42
-4z m42 -12 c2 -7 -6 -12 -17 -12 -21 0 -27 11 -14 24 9 9 26 2 31 -12z"/>
<path d="M2495 3651 c-3 -6 0 -8 8 -5 8 3 18 1 22 -5 3 -6 -5 -15 -20 -21 -30
-11 -29 -33 1 -38 19 -4 19 -4 0 11 -18 14 -18 14 2 19 16 4 22 0 25 -16 3
-11 4 -3 4 19 -2 28 -7 41 -19 43 -9 2 -19 -2 -23 -7z"/>
<path d="M2660 3646 c-17 -21 -8 -60 14 -64 18 -4 46 21 46 39 0 10 -29 39
-39 39 -5 0 -14 -7 -21 -14z m38 -29 c2 -19 -1 -27 -13 -27 -19 0 -30 24 -21
46 9 23 31 11 34 -19z"/>
<path d="M3002 3651 c-8 -5 -12 -21 -10 -37 2 -23 8 -29 28 -29 18 0 26 6 28
23 3 22 -13 52 -27 52 -3 0 -12 -4 -19 -9z m36 -34 c3 -22 -1 -27 -17 -27 -15
0 -21 6 -21 23 0 46 33 49 38 4z"/>
<path d="M3103 3635 l-11 -30 -10 25 c-14 34 -15 9 -1 -27 l11 -28 13 30 13
30 7 -27 c7 -28 25 -39 25 -15 0 6 3 23 5 37 l6 25 -12 -25 -11 -25 -12 30
-13 30 -10 -30z"/>
<path d="M3280 3645 c-17 -21 -4 -65 19 -65 30 0 46 26 33 55 -13 28 -34 32
-52 10z m39 -9 c14 -17 4 -46 -15 -46 -18 0 -28 24 -20 45 7 19 20 19 35 1z"/>
<path d="M3485 3649 c-5 -8 -1 -9 14 -4 13 4 21 2 21 -5 0 -7 -9 -14 -20 -17
-31 -8 -26 -43 6 -43 23 0 25 3 22 37 -3 38 -28 57 -43 32z m35 -44 c0 -8 -7
-15 -15 -15 -26 0 -18 20 13 29 1 1 2 -6 2 -14z"/>
<path d="M3561 3616 l2 -41 6 34 c8 43 28 51 37 14 10 -46 12 -50 13 -17 1 34
-13 51 -41 51 -14 0 -18 -9 -17 -41z"/>
<path d="M3772 3651 c-20 -12 -11 -65 12 -69 10 -2 22 0 28 6 6 6 0 8 -16 5
-15 -3 -26 -1 -26 6 0 6 11 11 25 11 27 0 33 18 13 38 -14 14 -19 15 -36 3z
m36 -19 c2 -7 -6 -12 -17 -12 -21 0 -27 11 -14 24 9 9 26 2 31 -12z"/>
<path d="M3893 3653 c-20 -7 -15 -31 7 -38 26 -8 26 -29 0 -22 -11 3 -18 1
-14 -4 3 -5 14 -9 25 -9 26 0 25 36 -2 43 -12 3 -18 10 -14 17 4 6 14 9 22 6
8 -3 11 -1 8 4 -7 11 -13 11 -32 3z"/>
<path d="M3966 3652 c-3 -6 1 -9 10 -8 22 1 29 -43 9 -51 -22 -8 -33 6 -15 18
13 9 13 10 0 6 -26 -7 -17 -32 13 -35 27 -3 28 -2 25 35 -3 37 -28 58 -42 35z"/>
<path d="M4072 3648 c-25 -25 -6 -68 30 -68 10 0 18 4 18 9 0 5 -8 7 -19 4
-10 -3 -22 0 -25 6 -5 7 4 11 23 11 19 0 31 5 31 13 0 16 -20 37 -35 37 -6 0
-16 -5 -23 -12z m42 -19 c-7 -11 -34 -12 -34 -1 0 14 11 21 26 15 8 -3 11 -9
8 -14z"/>
<path d="M4154 3645 c-7 -18 3 -35 22 -35 8 0 14 -5 14 -11 0 -6 -9 -9 -20 -6
-11 3 -20 1 -20 -5 0 -5 10 -8 22 -6 30 4 35 34 8 41 -11 3 -20 10 -20 17 0 7
8 9 21 5 15 -5 19 -4 15 4 -10 16 -36 14 -42 -4z"/>
<path d="M2730 3628 c0 -33 12 -47 38 -45 18 1 22 7 21 37 -1 34 -1 34 -8 6
-9 -41 -31 -46 -31 -7 0 17 -4 31 -10 31 -5 0 -10 -10 -10 -22z"/>
<path d="M1047 3463 c-6 -11 4 -83 12 -83 7 0 6 78 -2 86 -3 3 -7 2 -10 -3z"/>
<path d="M1100 3450 c-12 -8 -10 -10 9 -8 18 2 24 -3 27 -20 3 -14 -2 -25 -11
-29 -22 -8 -33 6 -15 17 12 8 12 10 -3 10 -30 0 -16 -35 16 -38 24 -3 27 0 27
25 0 26 -15 53 -29 53 -4 0 -13 -5 -21 -10z"/>
<path d="M1170 3455 c0 -6 5 -16 11 -22 8 -8 7 -17 -2 -34 -12 -23 -11 -23 6
-9 14 11 19 12 22 3 3 -7 9 -13 15 -13 6 0 6 6 -2 15 -7 8 -10 25 -7 36 4 16
3 19 -5 11 -8 -8 -15 -7 -24 6 -8 9 -14 12 -14 7z"/>
<path d="M1060 3055 c-5 -14 -12 -38 -16 -53 -4 -23 -3 -24 6 -9 6 9 18 17 27
17 9 0 22 -8 30 -17 10 -13 13 -14 9 -3 -2 8 -10 32 -17 53 -14 43 -26 47 -39
12z m30 -21 c0 -8 -6 -14 -14 -14 -9 0 -12 7 -9 20 6 22 23 18 23 -6z"/>
<path d="M1604 3058 c9 -15 16 -40 16 -55 1 -26 2 -25 14 10 8 20 19 44 26 52
9 10 9 15 1 15 -6 0 -11 -3 -11 -7 0 -5 -4 -15 -9 -22 -8 -12 -13 -11 -31 10
l-22 24 16 -27z"/>
<path d="M1882 3030 c1 -46 2 -49 7 -20 4 22 12 35 21 35 9 0 18 -13 22 -35
l6 -35 -1 40 c-2 33 -6 40 -22 40 -11 0 -23 7 -27 15 -4 8 -6 -10 -6 -40z"/>
<path d="M2530 3064 c0 -10 -6 -13 -19 -9 -25 8 -45 -19 -37 -50 5 -20 13 -25
36 -25 29 0 30 1 30 50 0 28 -2 50 -5 50 -3 0 -5 -7 -5 -16z m-11 -32 c12 -23
-2 -47 -23 -39 -24 10 -20 57 5 57 5 0 13 -8 18 -18z"/>
<path d="M2762 3030 c1 -46 2 -49 7 -20 4 22 12 35 21 35 9 0 18 -13 22 -35
l6 -35 -1 40 c-2 33 -6 40 -22 40 -11 0 -23 7 -27 15 -4 8 -6 -10 -6 -40z"/>
<path d="M3362 3030 c1 -45 2 -49 7 -20 4 22 12 35 21 35 9 0 17 -13 21 -35
l6 -35 2 31 c1 32 -20 60 -38 50 -5 -4 -12 2 -14 11 -3 10 -5 -7 -5 -37z"/>
<path d="M3633 3030 c0 -30 2 -43 4 -27 2 15 2 39 0 55 -2 15 -4 2 -4 -28z"/>
<path d="M1258 3065 c-10 -11 8 -79 22 -82 12 -4 13 -3 1 5 -9 6 -12 21 -9 41
4 30 -3 47 -14 36z"/>
<path d="M1388 3065 c-10 -11 8 -79 22 -82 12 -4 13 -3 1 5 -9 6 -12 21 -9 41
4 30 -3 47 -14 36z"/>
<path d="M3862 3028 c2 -23 9 -43 16 -46 11 -3 11 -1 0 17 -10 16 -10 25 -1
40 10 16 9 20 -3 25 -12 5 -15 -2 -12 -36z"/>
<path d="M4108 3065 c-10 -11 8 -79 22 -82 12 -4 13 -3 1 5 -9 6 -12 21 -9 41
4 30 -3 47 -14 36z"/>
<path d="M1141 3047 c-26 -26 2 -76 35 -63 10 4 14 2 11 -6 -2 -7 -14 -13 -26
-12 -13 0 -18 -3 -12 -9 5 -5 17 -7 27 -5 15 2 20 14 22 53 3 47 1 50 -22 51
-13 1 -29 -3 -35 -9z m46 -41 c-4 -9 -13 -16 -21 -16 -19 0 -29 30 -15 47 11
12 14 12 27 -1 8 -8 12 -22 9 -30z"/>
<path d="M1223 3020 c0 -25 2 -35 4 -22 2 12 2 32 0 45 -2 12 -4 2 -4 -23z"/>
<path d="M1315 3051 c-3 -6 0 -8 8 -5 8 3 18 1 22 -5 3 -6 -5 -15 -20 -21 -30
-11 -29 -33 1 -38 19 -4 19 -4 0 11 -18 14 -18 14 2 19 16 4 22 0 25 -16 3
-11 4 -3 4 19 -2 28 -7 41 -19 43 -9 2 -19 -2 -23 -7z"/>
<path d="M1442 3048 c-25 -25 -6 -68 30 -68 10 0 18 4 18 9 0 5 -8 7 -19 4
-10 -3 -22 0 -25 6 -5 7 2 11 17 11 31 0 38 9 26 31 -11 22 -30 24 -47 7z m36
-16 c2 -7 -6 -12 -17 -12 -21 0 -27 11 -14 24 9 9 26 2 31 -12z"/>
<path d="M1680 3045 c-24 -29 8 -75 44 -62 30 12 14 77 -20 77 -6 0 -17 -7
-24 -15z m45 -26 c0 -28 -29 -38 -39 -13 -7 19 11 47 28 41 6 -2 11 -14 11
-28z"/>
<path d="M1763 3025 c2 -36 5 -40 30 -41 25 -1 27 1 26 40 l-2 41 -6 -35 c-4
-22 -12 -35 -21 -35 -9 0 -18 13 -22 35 l-6 35 1 -40z"/>
<path d="M1970 3050 c-12 -8 -10 -10 9 -8 18 2 24 -3 27 -20 3 -14 -2 -25 -11
-29 -22 -8 -33 6 -15 17 12 8 12 10 -3 10 -30 0 -16 -35 16 -38 25 -3 27 -1
27 31 0 23 -6 37 -16 41 -19 7 -16 8 -34 -4z"/>
<path d="M2079 3030 l-12 -33 -13 29 c-7 16 -13 22 -13 14 0 -8 6 -26 14 -40
l14 -25 16 39 c9 21 14 41 11 44 -3 3 -11 -10 -17 -28z"/>
<path d="M2122 3048 c-25 -25 -6 -68 30 -68 10 0 18 4 18 9 0 5 -8 7 -19 4
-10 -3 -22 0 -25 6 -5 7 2 11 17 11 31 0 38 9 26 31 -11 22 -30 24 -47 7z m33
-9 c10 -15 -1 -23 -20 -15 -9 3 -13 10 -10 16 8 13 22 13 30 -1z"/>
<path d="M2253 3053 c-8 -3 -12 -20 -12 -41 l2 -37 6 33 c3 18 11 33 16 33 6
0 13 -15 17 -33 6 -32 6 -32 5 6 -2 39 -10 49 -34 39z"/>
<path d="M2325 3044 c-19 -19 -16 -43 6 -57 37 -23 69 29 37 61 -16 16 -23 15
-43 -4z m40 -25 c0 -28 -29 -38 -39 -13 -7 19 11 47 28 41 6 -2 11 -14 11 -28z"/>
<path d="M2443 3020 c0 -25 2 -35 4 -22 2 12 2 32 0 45 -2 12 -4 2 -4 -23z"/>
<path d="M2570 3046 c-27 -33 12 -88 42 -58 6 6 0 8 -16 5 -15 -3 -26 -1 -26
6 0 6 11 11 25 11 29 0 36 34 9 44 -21 8 -20 8 -34 -8z m38 -14 c2 -7 -6 -12
-17 -12 -21 0 -27 11 -14 24 9 9 26 2 31 -12z"/>
<path d="M2650 3050 c-12 -8 -10 -10 9 -8 19 2 24 -2 26 -20 1 -13 -4 -26 -12
-29 -20 -8 -30 6 -13 17 12 8 12 10 -3 10 -30 0 -16 -35 16 -38 24 -3 27 0 27
25 0 26 -15 53 -29 53 -4 0 -13 -5 -21 -10z"/>
<path d="M2850 3046 c-18 -22 -9 -60 16 -64 31 -4 50 23 36 53 -13 28 -34 32
-52 11z m39 -10 c14 -17 4 -46 -15 -46 -18 0 -28 24 -20 45 7 19 20 19 35 1z"/>
<path d="M2921 3050 c0 -8 6 -28 13 -45 14 -30 16 -29 29 15 3 10 9 5 17 -15
13 -33 22 -25 33 30 l6 30 -14 -30 c-14 -29 -15 -29 -21 -7 -9 30 -20 28 -32
-5 -8 -22 -11 -24 -11 -8 -2 25 -21 59 -20 35z"/>
<path d="M3093 3053 c-8 -3 -12 -20 -12 -41 l2 -37 6 33 c3 18 11 33 16 33 6
0 13 -15 16 -33 l6 -33 2 32 c1 30 16 51 28 40 3 -4 9 -21 13 -39 l8 -33 1 32
c1 17 -5 35 -11 40 -15 9 -57 12 -75 6z"/>
<path d="M3204 3020 c1 -31 4 -35 29 -36 25 -1 27 2 26 35 -1 36 -1 36 -8 6
-9 -43 -39 -45 -44 -3 l-4 33 1 -35z"/>
<path d="M3292 3051 c-20 -12 -11 -65 12 -69 10 -2 22 0 28 6 6 6 0 8 -16 5
-22 -5 -26 -2 -26 20 0 31 16 43 35 27 9 -7 15 -8 15 -2 0 5 -7 13 -16 16 -19
7 -16 7 -32 -3z"/>
<path d="M3487 3053 c-13 -13 -7 -32 13 -38 11 -3 20 -11 20 -17 0 -6 -9 -8
-20 -5 -11 3 -20 1 -20 -4 0 -5 11 -9 25 -9 32 0 35 35 4 43 -12 3 -18 10 -14
17 4 6 14 9 22 6 8 -3 11 -1 8 4 -7 11 -28 13 -38 3z"/>
<path d="M3560 3050 c-12 -8 -10 -10 9 -8 18 2 24 -3 27 -20 3 -14 -2 -25 -11
-29 -22 -8 -33 6 -15 17 12 8 12 10 -3 10 -31 0 -16 -35 16 -36 24 -1 27 2 27
31 0 21 -6 35 -16 39 -19 7 -16 8 -34 -4z"/>
<path d="M3672 3048 c-25 -25 -6 -68 30 -68 10 0 18 4 18 9 0 5 -8 7 -19 4
-10 -3 -22 0 -25 6 -5 7 4 11 23 11 19 0 31 5 31 13 0 16 -20 37 -35 37 -6 0
-16 -5 -23 -12z m38 -19 c0 -5 -7 -9 -15 -9 -15 0 -20 12 -9 23 8 8 24 -1 24
-14z"/>
<path d="M3754 3045 c-7 -18 3 -35 22 -35 8 0 14 -5 14 -11 0 -7 -10 -9 -26
-5 -17 5 -23 3 -19 -4 8 -14 42 -13 51 2 4 7 -2 18 -14 26 -28 19 -28 35 -1
27 15 -5 19 -4 15 4 -10 16 -36 14 -42 -4z"/>
<path d="M3920 3049 c-12 -8 -10 -9 8 -4 14 4 22 2 22 -5 0 -7 -9 -14 -20 -17
-11 -3 -20 -14 -20 -24 0 -14 7 -19 30 -19 26 0 30 4 30 28 0 25 -15 52 -29
52 -4 0 -13 -5 -21 -11z m35 -50 c-8 -12 -35 -12 -35 0 0 11 22 20 33 14 4 -2
5 -9 2 -14z"/>
<path d="M4160 3046 c-19 -24 -4 -68 22 -64 29 4 46 33 32 56 -15 23 -38 26
-54 8z m40 -11 c15 -18 6 -45 -14 -45 -20 0 -29 16 -21 40 8 24 18 25 35 5z"/>
<path d="M3999 3033 c6 -13 14 -23 16 -23 2 0 10 10 16 23 11 19 10 20 -3 10
-11 -10 -17 -10 -27 0 -11 10 -11 8 -2 -10z"/>
<path d="M3997 3003 c-4 -3 -7 -11 -7 -17 0 -6 5 -5 12 2 6 6 9 14 7 17 -3 3
-9 2 -12 -2z"/>
<path d="M4020 3001 c0 -5 5 -13 10 -16 6 -3 10 -2 10 4 0 5 -4 13 -10 16 -5
3 -10 2 -10 -4z"/>
<path d="M1122 2830 c1 -46 2 -49 7 -20 4 22 12 35 21 35 9 0 18 -13 22 -35
l6 -35 -1 40 c-2 33 -6 40 -22 40 -11 0 -23 7 -27 15 -4 8 -6 -10 -6 -40z"/>
<path d="M3003 2830 c0 -30 2 -44 4 -30 8 47 12 53 28 40 7 -6 16 -24 18 -38
4 -25 4 -25 6 4 1 32 -20 61 -38 50 -5 -4 -12 2 -14 11 -3 10 -5 -7 -4 -37z"/>
<path d="M2107 2863 c-6 -11 4 -83 12 -83 7 0 6 78 -2 86 -3 3 -7 2 -10 -3z"/>
<path d="M3197 2863 c-6 -11 4 -83 12 -83 7 0 6 78 -2 86 -3 3 -7 2 -10 -3z"/>
<path d="M3327 2863 c-6 -11 4 -83 12 -83 7 0 6 78 -2 86 -3 3 -7 2 -10 -3z"/>
<path d="M1050 2846 c-27 -33 12 -88 41 -59 6 6 1 9 -13 9 -14 -1 -24 6 -26
18 -6 27 13 42 33 26 8 -7 15 -8 15 -2 0 5 -7 13 -16 16 -21 8 -20 8 -34 -8z"/>
<path d="M1210 2850 c-12 -8 -10 -10 9 -8 18 2 24 -3 27 -20 3 -14 -2 -25 -11
-29 -22 -8 -33 6 -15 17 12 8 12 10 -3 10 -30 0 -16 -35 16 -38 24 -3 27 0 27
25 0 26 -15 53 -29 53 -4 0 -13 -5 -21 -10z"/>
<path d="M1281 2815 c2 -33 3 -35 6 -10 2 17 11 35 20 42 13 10 13 12 -6 10
-18 -1 -21 -7 -20 -42z"/>
<path d="M1340 2846 c-19 -24 -9 -61 18 -60 13 0 22 -5 22 -14 0 -10 -8 -13
-26 -9 -16 3 -22 1 -16 -5 6 -6 18 -8 28 -6 24 4 33 86 12 99 -18 12 -24 11
-38 -5z m35 -26 c0 -27 -22 -39 -31 -16 -8 22 3 49 19 43 6 -2 12 -14 12 -27z"/>
<path d="M1426 2844 c-9 -8 -16 -21 -16 -28 0 -29 51 -49 65 -26 4 7 -2 9 -19
4 -16 -4 -26 -2 -26 5 0 6 11 11 25 11 27 0 33 18 13 38 -16 16 -23 15 -42 -4z
m44 -15 c0 -5 -9 -9 -20 -9 -19 0 -26 11 -14 23 8 8 34 -3 34 -14z"/>
<path d="M1545 2819 c12 -34 13 -45 3 -57 -11 -13 -11 -14 1 -8 14 9 41 67 41
88 -1 7 -7 0 -14 -17 l-12 -30 -12 33 c-6 17 -13 32 -16 32 -3 0 1 -19 9 -41z"/>
<path d="M1620 2846 c-18 -22 -9 -60 16 -64 31 -4 50 23 36 53 -13 28 -34 32
-52 11z m39 -14 c12 -23 -2 -47 -23 -39 -24 10 -20 57 5 57 5 0 13 -8 18 -18z"/>
<path d="M1793 2853 c-8 -3 -12 -20 -12 -41 2 -34 2 -35 6 -7 3 17 9 36 15 43
11 13 10 13 -9 5z"/>
<path d="M1882 2851 c-20 -12 -11 -65 12 -69 10 -2 23 1 30 8 8 9 4 10 -16 5
-25 -6 -28 -4 -28 18 0 32 16 43 38 25 15 -12 16 -11 3 5 -15 19 -20 20 -39 8z"/>
<path d="M2037 2853 c-13 -13 -7 -32 13 -38 11 -3 20 -11 20 -17 0 -6 -9 -8
-20 -5 -11 3 -20 1 -20 -5 0 -5 10 -8 22 -6 30 4 35 34 8 41 -11 3 -20 10 -20
17 0 7 8 9 21 5 15 -5 19 -4 15 4 -8 12 -29 15 -39 4z"/>
<path d="M2160 2846 c-17 -21 -8 -60 14 -64 18 -4 46 21 46 39 0 10 -29 39
-39 39 -5 0 -14 -7 -21 -14z m39 -14 c12 -23 -2 -47 -23 -39 -24 10 -20 57 5
57 5 0 13 -8 18 -18z"/>
<path d="M2248 2852 c-13 -2 -18 -13 -18 -38 0 -43 18 -45 22 -1 4 43 22 41
27 -3 l4 -35 6 33 c3 18 11 33 16 33 6 0 13 -15 17 -33 6 -32 6 -31 5 7 -2 37
-4 40 -32 40 -16 1 -38 0 -47 -3z"/>
<path d="M2366 2844 c-9 -8 -16 -21 -16 -28 0 -29 51 -49 65 -26 4 7 -2 9 -19
4 -16 -4 -26 -2 -26 5 0 6 11 11 25 11 27 0 33 18 13 38 -16 16 -23 15 -42 -4z
m42 -12 c2 -7 -6 -12 -17 -12 -21 0 -27 11 -14 24 9 9 26 2 31 -12z"/>
<path d="M2441 2816 c2 -34 3 -36 6 -11 3 17 9 35 14 41 5 7 3 11 -6 11 -11 0
-15 -11 -14 -41z"/>
<path d="M2497 2853 c-13 -13 -7 -32 13 -38 11 -3 20 -11 20 -17 0 -6 -9 -8
-20 -5 -11 3 -20 1 -20 -4 0 -5 11 -9 25 -9 32 0 35 35 4 43 -12 3 -18 10 -14
17 4 6 14 9 22 6 8 -3 11 -1 8 4 -7 11 -28 13 -38 3z"/>
<path d="M2653 2853 c-8 -3 -12 -20 -12 -41 l2 -37 6 33 c8 43 25 46 29 5 2
-18 7 -33 13 -33 13 0 11 54 -3 68 -13 13 -16 13 -35 5z"/>
<path d="M2766 2844 c-9 -8 -16 -21 -16 -28 0 -29 51 -49 65 -26 4 7 -2 9 -19
4 -16 -4 -26 -2 -26 5 0 6 11 11 25 11 27 0 33 18 13 38 -16 16 -23 15 -42 -4z
m42 -12 c2 -7 -6 -12 -17 -12 -21 0 -27 11 -14 24 9 9 26 2 31 -12z"/>
<path d="M2845 2849 c-5 -8 -1 -9 14 -4 13 4 21 2 21 -5 0 -7 -9 -14 -20 -17
-31 -8 -26 -43 6 -43 23 0 25 3 22 37 -3 38 -28 57 -43 32z m35 -44 c0 -8 -7
-15 -15 -15 -26 0 -18 20 13 29 1 1 2 -6 2 -14z"/>
<path d="M2926 2844 c-19 -18 -19 -20 -6 -45 12 -21 45 -26 56 -8 4 8 -1 9
-16 4 -14 -5 -25 -2 -31 6 -11 18 9 52 27 45 9 -3 12 -1 9 4 -9 14 -21 12 -39
-6z"/>
<path d="M3124 2845 c-7 -18 3 -35 22 -35 8 0 14 -5 14 -11 0 -6 -9 -9 -20 -6
-11 3 -20 1 -20 -5 0 -5 10 -8 22 -6 30 4 35 34 8 41 -11 3 -20 10 -20 17 0 7
8 9 21 5 15 -5 19 -4 15 4 -10 16 -36 14 -42 -4z"/>
<path d="M3250 2850 c-12 -8 -10 -10 9 -8 18 2 24 -3 27 -20 3 -14 -2 -25 -11
-29 -22 -8 -33 6 -15 17 12 8 12 10 -3 10 -31 0 -16 -35 16 -36 23 -1 27 3 27
25 0 25 -16 51 -29 51 -4 0 -13 -5 -21 -10z"/>
<path d="M3380 2846 c-27 -34 12 -88 43 -57 7 7 4 8 -10 5 -12 -3 -24 -1 -27
5 -5 7 3 11 18 11 19 0 26 5 26 19 0 10 -7 22 -16 25 -21 8 -20 8 -34 -8z m38
-14 c2 -7 -6 -12 -17 -12 -21 0 -27 11 -14 24 9 9 26 2 31 -12z"/>
<path d="M1702 2818 c-2 -34 0 -38 23 -38 23 0 25 4 23 38 -1 36 -1 36 -5 5
-3 -19 -10 -33 -18 -33 -8 0 -15 14 -18 33 -4 31 -4 31 -5 -5z"/>
<path d="M1953 2818 c2 -28 6 -34 30 -36 25 -3 27 -1 27 32 0 20 -4 36 -10 36
-5 0 -10 -13 -10 -30 0 -19 -5 -30 -14 -30 -8 0 -17 13 -20 30 -6 30 -6 30 -3
-2z"/>
<path d="M2603 2815 c0 -22 2 -30 4 -17 2 12 2 30 0 40 -3 9 -5 -1 -4 -23z"/>
<path d="M3231 2616 c-25 -30 16 -67 44 -40 11 12 12 20 5 35 -12 22 -33 25
-49 5z"/>
<path d="M2739 2473 c-11 -13 -13 -30 -8 -58 5 -35 6 -36 8 -9 0 16 6 35 13
42 9 9 9 12 -1 12 -11 0 -11 3 -1 15 7 8 10 15 8 15 -3 0 -11 -8 -19 -17z"/>
<path d="M1047 2473 c-15 -15 -5 -35 23 -44 17 -6 30 -15 30 -20 0 -17 -30
-22 -47 -8 -14 12 -16 12 -11 -1 3 -9 17 -15 34 -15 41 0 44 29 4 50 -35 18
-30 40 7 30 16 -4 22 -2 18 5 -7 11 -48 14 -58 3z"/>
<path d="M1213 2430 c0 -30 2 -43 4 -27 2 15 2 39 0 55 -2 15 -4 2 -4 -28z"/>
<path d="M1664 2435 c1 -45 3 -50 25 -53 31 -5 51 21 51 65 0 48 -18 40 -22
-9 -2 -35 -7 -43 -23 -43 -16 0 -21 9 -26 45 l-7 45 2 -50z"/>
<path d="M1962 2473 c12 -3 18 -18 21 -51 l3 -47 2 47 c2 40 5 47 25 51 12 2
2 4 -23 4 -25 1 -37 -1 -28 -4z"/>
<path d="M2197 2473 c-14 -14 -6 -32 20 -45 31 -15 29 -33 -4 -33 -12 1 -19
-3 -17 -7 9 -14 41 -9 55 8 11 14 10 18 -6 30 -10 8 -25 14 -32 14 -7 0 -13 7
-13 16 0 12 7 15 25 12 14 -3 25 -1 25 3 0 10 -44 12 -53 2z"/>
<path d="M2363 2430 c0 -30 2 -43 4 -27 2 15 2 39 0 55 -2 15 -4 2 -4 -28z"/>
<path d="M2863 2430 c0 -30 2 -43 4 -27 2 15 2 39 0 55 -2 15 -4 2 -4 -28z"/>
<path d="M2893 2430 c0 -30 2 -43 4 -27 2 15 2 39 0 55 -2 15 -4 2 -4 -28z"/>
<path d="M1328 2464 c-10 -9 8 -78 20 -82 11 -3 11 -1 0 17 -10 16 -10 25 -1
40 10 15 9 20 -1 24 -8 3 -16 4 -18 1z"/>
<path d="M3042 2429 c4 -56 23 -62 22 -7 -1 23 -7 44 -13 46 -9 3 -11 -9 -9
-39z"/>
<path d="M1140 2446 c-17 -21 -8 -60 14 -64 37 -8 54 48 22 70 -16 11 -22 10
-36 -6z m38 -29 c2 -19 -1 -27 -13 -27 -19 0 -30 24 -21 46 9 23 31 11 34 -19z"/>
<path d="M1254 2420 c1 -30 5 -35 29 -38 25 -3 27 -1 26 35 l-1 38 -9 -32 c-5
-18 -16 -33 -24 -33 -8 0 -15 13 -18 33 -4 32 -4 32 -3 -3z"/>
<path d="M1383 2420 c0 -25 2 -35 4 -22 2 12 2 32 0 45 -2 12 -4 2 -4 -23z"/>
<path d="M1420 2445 c-17 -21 -4 -65 19 -65 30 0 46 26 33 55 -13 28 -34 32
-52 10z m39 -9 c14 -17 4 -46 -15 -46 -18 0 -28 24 -20 45 7 19 20 19 35 1z"/>
<path d="M1513 2453 c-8 -3 -12 -20 -12 -41 1 -27 3 -30 6 -12 8 47 12 53 28
40 7 -6 16 -24 18 -38 4 -26 4 -26 6 4 0 16 -4 35 -11 42 -13 13 -16 13 -35 5z"/>
<path d="M1767 2453 c-13 -13 -7 -32 13 -38 11 -3 20 -11 20 -17 0 -6 -9 -8
-20 -5 -11 3 -20 1 -20 -4 0 -5 11 -9 25 -9 32 0 35 35 4 43 -12 3 -18 10 -14
17 4 6 14 9 22 6 8 -3 11 -1 8 4 -7 11 -28 13 -38 3z"/>
<path d="M1840 2445 c-20 -24 -4 -65 25 -65 14 0 25 4 25 9 0 5 -8 7 -19 4
-10 -3 -22 0 -25 6 -5 7 2 11 17 11 31 0 38 9 26 31 -12 23 -32 24 -49 4z m38
-13 c2 -7 -6 -12 -17 -12 -21 0 -27 11 -14 24 9 9 26 2 31 -12z"/>
<path d="M2046 2452 c-3 -6 1 -9 10 -8 22 1 29 -43 9 -51 -22 -8 -33 6 -15 18
13 9 13 10 0 6 -27 -7 -17 -32 13 -33 26 -1 28 1 25 35 -3 35 -28 55 -42 33z"/>
<path d="M2110 2455 c0 -6 5 -16 11 -22 8 -8 7 -17 -2 -34 -12 -23 -11 -23 6
-9 14 11 19 12 22 3 3 -7 9 -13 15 -13 6 0 6 6 -2 15 -7 8 -9 24 -5 37 6 18 5
21 -6 11 -10 -10 -15 -9 -25 5 -8 9 -14 12 -14 7z"/>
<path d="M2285 2444 c-19 -19 -16 -43 6 -57 37 -23 69 29 37 61 -16 16 -23 15
-43 -4z m40 -25 c0 -28 -29 -38 -39 -13 -7 19 11 47 28 41 6 -2 11 -14 11 -28z"/>
<path d="M2480 2446 c-18 -22 -9 -60 16 -64 31 -4 50 23 36 53 -13 28 -34 32
-52 11z m39 -10 c14 -17 4 -46 -15 -46 -18 0 -28 24 -20 45 7 19 20 19 35 1z"/>
<path d="M2653 2453 c-8 -3 -12 -20 -12 -41 2 -34 2 -35 6 -7 3 17 9 36 15 43
11 13 10 13 -9 5z"/>
<path d="M2783 2425 c2 -36 5 -40 30 -41 25 -1 27 1 26 40 l-2 41 -6 -35 c-4
-22 -12 -35 -21 -35 -9 0 -18 13 -22 35 l-6 35 1 -40z"/>
<path d="M2974 2445 c-7 -18 3 -35 22 -35 8 0 14 -5 14 -11 0 -7 -10 -9 -26
-5 -17 5 -23 3 -19 -4 8 -14 42 -13 51 2 4 7 -2 18 -14 26 -28 19 -28 35 -1
27 15 -5 19 -4 15 4 -10 16 -36 14 -42 -4z"/>
<path d="M2562 2418 c-2 -34 0 -38 23 -38 23 0 25 4 23 38 -1 36 -1 36 -5 5
-3 -19 -10 -33 -18 -33 -8 0 -15 14 -18 33 -4 31 -4 31 -5 -5z"/>
<path d="M3092 2400 c0 -14 2 -19 5 -12 2 6 2 18 0 25 -3 6 -5 1 -5 -13z"/>
<path d="M2396 2373 c-6 -14 -5 -15 5 -6 7 7 10 15 7 18 -3 3 -9 -2 -12 -12z"/>
<path d="M3230 2315 c-9 -10 -10 -19 -3 -26 6 -6 103 -8 249 -7 231 3 239 4
239 23 0 19 -8 20 -236 23 -204 2 -238 0 -249 -13z"/>
<path d="M1203 2230 c0 -30 2 -43 4 -27 2 15 2 39 0 55 -2 15 -4 2 -4 -28z"/>
<path d="M2860 2230 c0 -27 5 -50 10 -50 6 0 10 23 10 50 0 28 -4 50 -10 50
-5 0 -10 -22 -10 -50z"/>
<path d="M1317 2263 c-2 -5 -2 -25 0 -45 4 -27 10 -38 22 -38 13 0 13 2 2 9
-9 6 -12 20 -9 40 4 30 -5 51 -15 34z"/>
<path d="M1647 2263 c-6 -11 4 -83 12 -83 7 0 6 78 -2 86 -3 3 -7 2 -10 -3z"/>
<path d="M1053 2253 c-20 -7 -15 -31 7 -38 27 -9 26 -29 -1 -22 -15 4 -19 3
-12 -4 14 -14 45 -8 50 8 3 7 -7 17 -22 23 -15 6 -23 15 -20 21 4 6 14 8 22 5
8 -3 11 -1 8 4 -7 11 -13 11 -32 3z"/>
<path d="M1120 2245 c-26 -31 13 -82 44 -56 19 16 21 42 4 59 -16 16 -33 15
-48 -3z m47 -39 c-8 -20 -36 -21 -43 -1 -4 8 0 22 7 31 11 13 14 13 27 0 8 -8
12 -22 9 -30z"/>
<path d="M1233 2225 c2 -36 5 -40 30 -41 25 -1 27 1 26 40 l-2 41 -6 -35 c-4
-22 -12 -35 -21 -35 -9 0 -18 13 -22 35 l-6 35 1 -40z"/>
<path d="M1405 2244 c-19 -19 -16 -43 6 -57 37 -23 69 29 37 61 -16 16 -23 15
-43 -4z m40 -25 c0 -28 -29 -38 -39 -13 -7 19 11 47 28 41 6 -2 11 -14 11 -28z"/>
<path d="M1481 2216 l2 -41 6 35 c4 22 12 35 21 35 9 0 18 -13 22 -35 l6 -35
-1 40 c-2 36 -5 40 -29 41 -26 1 -28 -1 -27 -40z"/>
<path d="M1700 2246 c-17 -21 -8 -60 14 -64 18 -4 46 21 46 39 0 10 -29 39
-39 39 -5 0 -14 -7 -21 -14z m38 -29 c2 -19 -1 -27 -13 -27 -19 0 -30 24 -21
46 9 23 31 11 34 -19z"/>
<path d="M1849 2247 c6 -6 12 -25 12 -41 l2 -31 6 33 c3 18 11 33 16 33 6 0
13 -15 17 -33 6 -32 6 -31 5 7 -2 37 -4 40 -35 41 -24 1 -31 -1 -23 -9z"/>
<path d="M1945 2251 c-3 -6 0 -8 8 -5 8 3 18 1 22 -5 3 -6 -5 -15 -20 -21 -30
-11 -29 -33 1 -38 19 -4 19 -4 0 11 -18 14 -18 14 2 19 16 4 22 0 25 -16 3
-11 4 -3 4 19 -2 28 -7 41 -19 43 -9 2 -19 -2 -23 -7z"/>
<path d="M2028 2253 c-14 -3 -18 -14 -17 -41 2 -29 3 -31 6 -10 2 14 11 32 18
38 16 13 20 8 29 -40 2 -14 3 -7 3 14 -2 40 -9 47 -39 39z"/>
<path d="M2105 2251 c-3 -6 0 -8 8 -5 8 3 18 1 22 -5 3 -6 -5 -15 -20 -21 -33
-13 -28 -34 9 -38 26 -3 27 -2 24 35 -3 38 -28 57 -43 34z m31 -58 c-3 -3 -13
-2 -23 2 -17 7 -17 8 2 15 19 7 34 -5 21 -17z"/>
<path d="M2181 2247 c-26 -26 2 -76 35 -63 10 4 14 2 11 -6 -2 -7 -14 -13 -26
-12 -11 0 -21 -3 -21 -8 0 -9 22 -11 44 -2 11 4 16 19 16 53 0 42 -2 46 -24
47 -13 1 -29 -3 -35 -9z m43 -40 c-3 -9 -13 -17 -20 -17 -21 0 -29 27 -13 46
10 13 14 13 26 1 8 -7 11 -21 7 -30z"/>
<path d="M2270 2246 c-27 -33 12 -88 42 -58 6 6 0 8 -16 5 -15 -3 -26 -1 -26
6 0 6 11 11 25 11 29 0 36 34 9 44 -21 8 -20 8 -34 -8z m38 -14 c2 -7 -6 -12
-17 -12 -21 0 -27 11 -14 24 9 9 26 2 31 -12z"/>
<path d="M2421 2230 l-12 -35 -14 30 c-17 37 -19 29 -4 -14 8 -24 8 -35 -1
-46 -9 -11 -9 -15 -1 -15 13 0 54 87 48 104 -2 6 -9 -5 -16 -24z"/>
<path d="M2465 2244 c-19 -19 -16 -43 6 -57 37 -23 69 29 37 61 -16 16 -23 15
-43 -4z m40 -25 c0 -28 -29 -38 -39 -13 -7 19 11 47 28 41 6 -2 11 -14 11 -28z"/>
<path d="M2543 2225 c2 -36 5 -40 30 -41 25 -1 27 1 26 40 l-2 41 -6 -35 c-4
-22 -12 -35 -21 -35 -9 0 -18 13 -22 35 l-6 35 1 -40z"/>
<path d="M2621 2215 c2 -33 3 -35 6 -10 2 17 11 35 20 42 13 10 13 12 -6 10
-18 -1 -21 -7 -20 -42z"/>
<path d="M2720 2250 c-13 -9 -12 -13 8 -29 28 -24 28 -35 1 -28 -15 4 -19 3
-12 -4 14 -14 45 -8 50 8 3 7 -7 17 -22 23 -15 6 -23 15 -20 21 4 6 14 8 22 5
8 -3 11 -1 8 4 -8 13 -16 12 -35 0z"/>
<path d="M2795 2251 c-3 -6 0 -8 8 -5 8 3 18 1 22 -5 3 -6 -5 -15 -20 -21 -30
-11 -29 -33 1 -38 19 -4 19 -4 0 11 -18 14 -18 14 2 19 16 4 22 0 25 -16 3
-11 4 -3 4 19 -2 28 -7 41 -19 43 -9 2 -19 -2 -23 -7z"/>
<path d="M2906 2244 c-19 -18 -19 -20 -6 -45 11 -19 44 -26 54 -10 3 4 -6 6
-19 3 -15 -2 -25 0 -25 7 0 6 11 11 25 11 27 0 33 18 13 38 -16 16 -23 15 -42
-4z m42 -12 c2 -7 -6 -12 -17 -12 -21 0 -27 11 -14 24 9 9 26 2 31 -12z"/>
<path d="M2987 2253 c-13 -13 -7 -32 13 -38 11 -3 20 -11 20 -17 0 -6 -9 -8
-20 -5 -11 3 -20 1 -20 -4 0 -5 11 -9 25 -9 32 0 35 35 4 43 -12 3 -18 10 -15
16 4 6 14 7 23 4 11 -4 14 -3 9 5 -8 13 -29 16 -39 5z"/>
<path d="M1363 2215 c0 -22 2 -30 4 -17 2 12 2 30 0 40 -3 9 -5 -1 -4 -23z"/>
<path d="M1810 2213 c0 -43 5 -41 13 5 4 18 2 32 -3 32 -6 0 -10 -16 -10 -37z"/>
<path d="M1567 2183 c-4 -3 -7 -11 -7 -17 0 -6 5 -5 12 2 6 6 9 14 7 17 -3 3
-9 2 -12 -2z"/>
<path d="M1041 1578 c0 -36 3 -47 8 -33 4 11 19 22 32 25 17 4 24 13 24 30 0
21 -6 26 -32 28 l-33 3 1 -53z m57 20 c3 -13 -3 -18 -22 -18 -20 0 -26 5 -26
21 0 15 5 20 22 17 13 -2 24 -11 26 -20z"/>
<path d="M2291 1582 c-1 -52 -1 -53 27 -50 19 2 28 9 30 26 4 27 -16 55 -34
48 -7 -3 -15 3 -17 12 -3 9 -5 -7 -6 -36z m44 -13 c0 -15 -7 -25 -17 -27 -13
-3 -18 3 -18 21 0 13 3 27 7 31 13 12 28 -1 28 -25z"/>
<path d="M1140 1599 c-12 -8 -10 -9 8 -4 14 4 22 2 22 -5 0 -7 -9 -14 -20 -17
-11 -3 -20 -14 -20 -24 0 -14 7 -19 30 -19 26 0 30 4 30 28 0 25 -15 52 -29
52 -4 0 -13 -5 -21 -11z m35 -50 c-8 -12 -35 -12 -35 0 0 11 22 20 33 14 4 -2
5 -9 2 -14z"/>
<path d="M1213 1570 c0 -25 2 -35 4 -22 2 12 2 32 0 45 -2 12 -4 2 -4 -23z"/>
<path d="M1241 1570 l1 -45 8 35 c5 20 5 39 -1 45 -5 5 -9 -8 -8 -35z"/>
<path d="M1277 1599 c6 -8 13 -27 16 -44 4 -23 4 -20 3 9 -1 25 -6 41 -16 44
-12 4 -13 2 -3 -9z"/>
<path d="M1410 1596 c-27 -34 12 -88 43 -57 7 7 4 8 -10 5 -12 -3 -24 -1 -27
5 -5 7 3 11 18 11 19 0 26 5 26 19 0 10 -7 22 -16 25 -21 8 -20 8 -34 -8z m38
-14 c2 -7 -6 -12 -17 -12 -21 0 -27 11 -14 24 9 9 26 2 31 -12z"/>
<path d="M1556 1594 c-19 -18 -19 -20 -6 -45 11 -20 45 -26 55 -9 4 7 -3 8
-20 4 -25 -6 -26 -4 -23 22 2 20 8 29 20 28 10 -1 15 2 12 7 -8 13 -21 11 -38
-7z"/>
<path d="M1638 1599 c-35 -20 -11 -75 29 -67 22 4 29 43 13 64 -14 16 -19 17
-42 3z m37 -30 c0 -28 -29 -38 -39 -13 -7 19 11 47 28 41 6 -2 11 -14 11 -28z"/>
<path d="M1711 1567 l2 -42 6 34 c9 49 31 52 32 4 l1 -38 8 35 c10 40 9 42
-25 45 -23 3 -25 1 -24 -38z"/>
<path d="M1787 1599 c6 -8 13 -27 16 -44 4 -23 4 -20 3 9 -1 25 -6 41 -16 44
-12 4 -13 2 -3 -9z"/>
<path d="M1831 1566 c2 -34 3 -36 6 -11 9 59 41 55 44 -5 1 -21 3 -19 8 8 3
18 11 33 16 33 6 0 13 -15 17 -33 6 -32 6 -31 5 7 l-2 40 -47 0 -48 1 1 -40z"/>
<path d="M1960 1595 c-20 -24 -4 -65 25 -65 14 0 25 4 25 9 0 5 -8 7 -19 4
-10 -3 -22 0 -25 6 -5 7 2 11 17 11 31 0 38 9 26 31 -12 23 -32 24 -49 4z m38
-13 c2 -7 -6 -12 -17 -12 -21 0 -27 11 -14 24 9 9 26 2 31 -12z"/>
<path d="M2048 1603 c-13 -3 -18 -15 -18 -39 0 -19 5 -34 10 -34 6 0 10 13 10
28 0 15 5 33 12 40 7 7 10 11 8 11 -3 -1 -13 -3 -22 -6z"/>
<path d="M2090 1595 c-24 -29 14 -85 41 -58 9 9 7 11 -9 6 -15 -3 -24 0 -28
11 -8 21 13 46 33 39 11 -4 14 -2 9 5 -10 16 -31 15 -46 -3z"/>
<path d="M2171 1596 c-28 -34 11 -88 42 -57 7 7 4 8 -10 5 -12 -3 -24 -1 -27
5 -5 7 3 11 19 11 22 0 26 4 23 22 -4 27 -30 35 -47 14z m37 -14 c2 -7 -6 -12
-17 -12 -21 0 -27 11 -14 24 9 9 26 2 31 -12z"/>
<path d="M2373 1575 c2 -36 5 -40 30 -41 25 -1 27 1 26 40 l-2 41 -6 -35 c-4
-22 -12 -35 -21 -35 -9 0 -18 13 -22 35 l-6 35 1 -40z"/>
<path d="M2463 1603 c-20 -7 -15 -31 7 -38 27 -9 26 -29 -1 -22 -15 4 -19 3
-12 -4 14 -14 45 -8 50 8 3 7 -7 17 -22 23 -15 6 -23 15 -20 21 4 6 14 8 22 5
8 -3 11 -1 8 4 -7 11 -13 11 -32 3z"/>
<path d="M2561 1566 l2 -41 6 35 c4 22 12 35 21 35 9 0 17 -13 21 -35 l6 -35
2 31 c1 34 -13 51 -41 51 -14 0 -18 -9 -17 -41z"/>
<path d="M2650 1596 c-27 -33 12 -88 42 -58 6 6 0 8 -16 5 -15 -3 -26 -1 -26
6 0 6 11 11 25 11 29 0 36 34 9 44 -21 8 -20 8 -34 -8z m38 -14 c2 -7 -6 -12
-17 -12 -21 0 -27 11 -14 24 9 9 26 2 31 -12z"/>
<path d="M2733 1603 c-20 -7 -15 -31 7 -38 27 -9 26 -29 -1 -22 -15 4 -19 3
-12 -4 14 -14 45 -8 50 8 3 7 -7 17 -22 23 -15 6 -23 15 -20 21 4 6 14 8 22 5
8 -3 11 -1 8 4 -7 11 -13 11 -32 3z"/>
<path d="M2801 1596 c-9 -11 -6 -18 16 -36 l28 -21 -30 6 c-23 5 -27 4 -19 -5
14 -14 46 -10 51 7 3 7 -7 18 -21 24 -26 12 -26 35 1 25 8 -3 11 -1 8 4 -9 14
-21 12 -34 -4z"/>
<path d="M2915 1594 c-19 -19 -16 -43 6 -57 37 -23 69 29 37 61 -16 16 -23 15
-43 -4z m43 -22 c4 -26 -26 -42 -38 -21 -11 16 7 52 23 46 7 -2 13 -13 15 -25z"/>
<path d="M3027 1600 c-3 -8 -8 -22 -10 -30 -3 -11 -8 -8 -15 10 -12 27 -15 9
-6 -27 8 -31 20 -29 29 5 l7 27 13 -30 13 -30 11 28 c14 36 13 59 -1 29 l-12
-23 -12 28 c-8 20 -13 24 -17 13z"/>
<path d="M3100 1571 c0 -23 2 -41 4 -41 8 0 12 71 4 76 -4 3 -8 -13 -8 -35z"/>
<path d="M3137 1599 c6 -8 13 -27 16 -44 4 -23 4 -20 3 9 -1 25 -6 41 -16 44
-12 4 -13 2 -3 -9z"/>
<path d="M3190 1595 c-20 -24 -4 -65 25 -65 14 0 25 4 25 9 0 5 -8 7 -19 4
-10 -3 -22 0 -25 6 -5 7 2 11 17 11 31 0 38 9 26 31 -12 23 -32 24 -49 4z m38
-13 c2 -7 -6 -12 -17 -12 -21 0 -27 11 -14 24 9 9 26 2 31 -12z"/>
<path d="M3283 1603 c-8 -3 -12 -20 -12 -41 2 -34 2 -35 6 -7 3 17 9 36 15 43
11 13 10 13 -9 5z"/>
<path d="M3324 1595 c-7 -18 3 -35 22 -35 8 0 14 -5 14 -11 0 -6 -9 -9 -20 -6
-11 3 -20 1 -20 -5 0 -5 10 -8 22 -6 30 4 35 34 8 41 -11 3 -20 10 -20 17 0 7
8 9 21 5 15 -5 19 -4 15 4 -10 16 -36 14 -42 -4z"/>
<path d="M3440 1599 c-12 -8 -10 -9 8 -4 14 4 22 2 22 -5 0 -7 -9 -14 -20 -17
-11 -3 -20 -14 -20 -24 0 -14 7 -19 30 -19 26 0 30 4 30 28 0 25 -15 52 -29
52 -4 0 -13 -5 -21 -11z m30 -44 c0 -8 -7 -15 -15 -15 -26 0 -18 20 13 29 1 1
2 -6 2 -14z"/>
<path d="M3511 1566 c2 -34 3 -36 6 -11 3 17 9 35 14 41 5 7 3 11 -6 11 -11 0
-15 -11 -14 -41z"/>
<path d="M3574 1602 c-30 -20 -18 -72 16 -72 10 0 21 4 24 9 3 4 -6 6 -19 3
-15 -2 -25 0 -25 7 0 6 11 11 25 11 27 0 33 18 13 38 -14 14 -19 14 -34 4z
m34 -20 c2 -7 -6 -12 -17 -12 -21 0 -27 11 -14 24 9 9 26 2 31 -12z"/>
<path d="M2520 1565 c0 -19 5 -35 10 -35 6 0 10 16 10 35 0 19 -4 35 -10 35
-5 0 -10 -16 -10 -35z"/>
<path d="M1493 1573 c9 -2 23 -2 30 0 6 3 -1 5 -18 5 -16 0 -22 -2 -12 -5z"/>
<path d="M1473 1380 c0 -30 2 -43 4 -27 2 15 2 39 0 55 -2 15 -4 2 -4 -28z"/>
<path d="M1923 1380 c-1 -30 1 -47 4 -37 5 18 6 18 24 1 21 -19 27 -6 7 14
-10 10 -10 17 1 35 14 22 14 22 -7 4 -20 -18 -21 -18 -25 10 -2 15 -4 3 -4
-27z"/>
<path d="M2680 1380 c0 -29 2 -51 5 -48 8 7 9 87 2 95 -4 3 -7 -18 -7 -47z"/>
<path d="M2862 1380 c1 -45 2 -48 7 -21 8 43 28 51 37 14 10 -46 12 -50 13
-17 1 32 -21 60 -38 50 -5 -4 -12 2 -14 11 -3 10 -5 -7 -5 -37z"/>
<path d="M3472 1380 c1 -43 2 -48 7 -22 8 43 25 46 29 5 4 -41 22 -44 22 -4 0
30 -22 57 -39 47 -5 -4 -12 2 -14 11 -3 10 -5 -7 -5 -37z"/>
<path d="M1118 1415 c-10 -11 8 -79 22 -82 12 -4 13 -3 1 5 -9 6 -12 21 -9 41
4 30 -3 47 -14 36z"/>
<path d="M1747 1413 c-2 -5 -2 -25 0 -45 4 -27 10 -38 22 -38 13 0 13 2 2 9
-9 6 -12 20 -9 40 4 30 -5 51 -15 34z"/>
<path d="M2632 1378 c2 -23 9 -43 16 -46 11 -3 11 -1 0 17 -10 16 -10 25 -1
40 10 16 9 20 -3 25 -12 5 -15 -2 -12 -36z"/>
<path d="M2809 1415 c-3 -2 -3 -22 -1 -44 3 -30 9 -41 21 -41 13 0 13 2 2 9
-9 6 -12 20 -9 40 4 29 -3 47 -13 36z"/>
<path d="M1053 1403 c-20 -7 -15 -31 7 -38 27 -9 26 -29 -1 -22 -15 4 -19 3
-12 -4 14 -14 45 -8 50 8 3 7 -7 17 -22 23 -15 6 -23 15 -20 21 4 6 14 8 22 5
8 -3 11 -1 8 4 -7 11 -13 11 -32 3z"/>
<path d="M1183 1403 c-8 -3 -12 -20 -12 -41 2 -34 2 -35 6 -7 3 17 9 36 15 43
11 13 10 13 -9 5z"/>
<path d="M1224 1370 c1 -30 5 -35 29 -38 25 -3 27 -1 26 35 l-1 38 -9 -32 c-5
-18 -16 -33 -24 -33 -8 0 -15 13 -18 33 -4 32 -4 32 -3 -3z"/>
<path d="M1311 1401 c-7 -5 -11 -21 -9 -37 2 -23 8 -29 26 -28 12 0 21 -4 19
-10 -2 -6 -14 -11 -26 -10 -13 0 -18 -3 -12 -9 5 -5 17 -7 27 -5 15 2 20 14
22 53 2 43 0 51 -16 52 -10 1 -24 -2 -31 -6z m34 -31 c0 -27 -22 -39 -31 -16
-8 22 3 49 19 43 6 -2 12 -14 12 -27z"/>
<path d="M1392 1398 c-22 -22 -7 -69 23 -68 5 0 2 5 -7 11 -20 11 -22 27 -9
48 15 24 39 -4 37 -42 -2 -26 -6 -32 -24 -31 -12 0 -22 -3 -22 -8 0 -12 34
-10 48 4 14 14 16 88 3 88 -5 0 -15 2 -23 5 -7 3 -19 0 -26 -7z"/>
<path d="M1553 1403 c-8 -3 -12 -20 -12 -41 l2 -37 6 33 c8 43 25 46 29 5 4
-36 22 -46 22 -12 0 23 -17 59 -28 58 -4 0 -13 -3 -19 -6z"/>
<path d="M1625 1394 c-18 -19 -19 -25 -1 -49 8 -12 19 -16 30 -12 12 5 16 3
13 -5 -2 -7 -14 -13 -26 -12 -13 0 -18 -3 -12 -9 5 -5 17 -7 27 -5 15 2 20 14
22 53 3 45 1 51 -17 52 -12 1 -28 -5 -36 -13z m40 -25 c0 -15 -7 -25 -17 -27
-13 -3 -18 3 -18 21 0 13 3 27 7 31 13 12 28 -1 28 -25z"/>
<path d="M1800 1396 c-18 -22 -9 -60 16 -64 31 -4 50 23 36 53 -13 28 -34 32
-52 11z m39 -10 c14 -17 4 -46 -15 -46 -18 0 -28 24 -20 45 7 19 20 19 35 1z"/>
<path d="M2004 1402 c-30 -20 -18 -72 16 -72 10 0 21 4 24 9 3 4 -6 6 -19 3
-15 -2 -25 0 -25 7 0 6 11 11 25 11 27 0 33 18 13 38 -14 14 -19 14 -34 4z
m34 -20 c2 -7 -6 -12 -17 -12 -21 0 -27 11 -14 24 9 9 26 2 31 -12z"/>
<path d="M2080 1396 c-27 -33 12 -88 42 -58 6 6 0 8 -16 5 -15 -3 -26 -1 -26
6 0 6 11 11 25 11 29 0 36 34 9 44 -21 8 -20 8 -34 -8z m38 -14 c2 -7 -6 -12
-17 -12 -21 0 -27 11 -14 24 9 9 26 2 31 -12z"/>
<path d="M2151 1354 c1 -33 4 -50 7 -39 4 11 16 20 26 20 26 0 44 30 30 52 -6
9 -17 19 -25 21 -10 4 -9 -1 4 -15 20 -23 13 -56 -12 -51 -10 2 -16 13 -16 30
0 14 -3 30 -7 34 -5 4 -8 -19 -7 -52z"/>
<path d="M2373 1403 c-8 -3 -13 -24 -12 -56 1 -31 4 -44 7 -32 4 11 16 20 27
20 15 0 21 8 23 29 4 36 -15 52 -45 39z m35 -36 c2 -19 -1 -27 -13 -27 -19 0
-30 24 -21 46 9 23 31 11 34 -19z"/>
<path d="M2515 1378 l-7 -32 -14 30 -13 29 6 -30 c8 -43 21 -52 29 -22 7 30
24 27 24 -4 0 -31 16 -22 27 16 6 19 7 35 3 35 -5 0 -10 -10 -13 -22 -3 -22
-4 -22 -15 5 -15 35 -19 34 -27 -5z"/>
<path d="M2717 1399 c6 -8 13 -27 16 -44 4 -23 4 -20 3 9 -1 25 -6 41 -16 44
-12 4 -13 2 -3 -9z"/>
<path d="M2952 1401 c-20 -12 -11 -65 12 -69 10 -2 22 0 28 6 6 6 0 8 -16 5
-15 -3 -26 -1 -26 6 0 6 11 11 25 11 27 0 33 18 13 38 -14 14 -19 15 -36 3z
m36 -19 c2 -7 -6 -12 -17 -12 -21 0 -27 11 -14 24 9 9 26 2 31 -12z"/>
<path d="M3072 1401 c-20 -12 -11 -65 12 -69 10 -2 22 0 28 6 6 6 0 8 -16 5
-15 -3 -26 -1 -26 6 0 6 11 11 25 11 27 0 33 18 13 38 -14 14 -19 15 -36 3z
m36 -19 c2 -7 -6 -12 -17 -12 -21 0 -27 11 -14 24 9 9 26 2 31 -12z"/>
<path d="M3179 1380 l-12 -33 -13 29 c-7 16 -13 22 -13 14 0 -8 6 -26 14 -40
l14 -25 16 39 c9 21 14 41 11 44 -3 3 -11 -10 -17 -28z"/>
<path d="M3222 1398 c-25 -25 -6 -68 30 -68 10 0 18 4 18 9 0 5 -8 7 -19 4
-10 -3 -22 0 -25 6 -5 7 2 11 17 11 31 0 38 9 26 31 -11 22 -30 24 -47 7z m36
-16 c2 -7 -6 -12 -17 -12 -21 0 -27 11 -14 24 9 9 26 2 31 -12z"/>
<path d="M3313 1403 c-8 -3 -12 -20 -12 -41 2 -34 2 -35 6 -7 3 17 9 36 15 43
11 13 10 13 -9 5z"/>
<path d="M3396 1394 c-9 -8 -16 -21 -16 -28 0 -29 51 -49 65 -26 4 7 -2 9 -18
5 -17 -5 -26 -2 -31 11 -8 21 12 47 31 40 8 -3 11 -1 8 4 -9 14 -21 12 -39 -6z"/>
<path d="M3555 1399 c-5 -8 -1 -9 14 -4 30 9 27 -13 -4 -25 -31 -12 -23 -40
12 -40 22 0 24 4 21 37 -3 38 -28 57 -43 32z m35 -44 c0 -8 -7 -15 -15 -15
-26 0 -18 20 13 29 1 1 2 -6 2 -14z"/>
<path d="M3643 1403 c-8 -3 -12 -20 -12 -41 l2 -37 6 34 c8 43 28 51 37 14 10
-46 12 -50 13 -17 1 16 -4 35 -11 42 -13 13 -16 13 -35 5z"/>
<path d="M3721 1401 c-7 -5 -11 -21 -9 -37 2 -23 8 -29 26 -28 12 0 21 -4 19
-10 -2 -6 -14 -11 -26 -10 -13 0 -18 -3 -12 -9 5 -5 17 -7 27 -5 15 2 20 14
22 53 2 43 0 51 -16 52 -10 1 -24 -2 -31 -6z m34 -31 c0 -27 -22 -39 -31 -16
-8 22 3 49 19 43 6 -2 12 -14 12 -27z"/>
<path d="M3843 1403 c-8 -3 -12 -20 -12 -41 l2 -37 6 34 c8 43 28 51 37 14 10
-46 12 -50 13 -17 1 16 -4 35 -11 42 -13 13 -16 13 -35 5z"/>
<path d="M3921 1401 c-7 -5 -11 -21 -9 -37 2 -23 8 -29 26 -28 12 0 21 -4 19
-10 -2 -6 -14 -11 -26 -10 -13 0 -18 -3 -12 -9 5 -5 17 -7 27 -5 15 2 20 14
22 53 2 43 0 51 -16 52 -10 1 -24 -2 -31 -6z m34 -31 c0 -27 -22 -39 -31 -16
-8 22 3 49 19 43 6 -2 12 -14 12 -27z"/>
<path d="M1503 1365 c0 -22 2 -30 4 -17 2 12 2 30 0 40 -3 9 -5 -1 -4 -23z"/>
<path d="M2282 1368 c-2 -34 0 -38 23 -38 23 0 25 4 23 38 -1 36 -1 36 -5 5
-3 -19 -10 -33 -18 -33 -8 0 -15 14 -18 33 -4 31 -4 31 -5 -5z"/>
<path d="M2603 1365 c0 -22 2 -30 4 -17 2 12 2 30 0 40 -3 9 -5 -1 -4 -23z"/>
<path d="M3793 1365 c0 -22 2 -30 4 -17 2 12 2 30 0 40 -3 9 -5 -1 -4 -23z"/>
<path d="M1193 1180 c0 -30 2 -43 4 -27 2 15 2 39 0 55 -2 15 -4 2 -4 -28z"/>
<path d="M1673 1180 c0 -30 2 -43 4 -27 2 15 2 39 0 55 -2 15 -4 2 -4 -28z"/>
<path d="M1427 1213 c-6 -11 4 -83 12 -83 7 0 6 78 -2 86 -3 3 -7 2 -10 -3z"/>
<path d="M1053 1203 c-20 -7 -15 -31 7 -38 27 -9 26 -29 -1 -22 -15 4 -19 3
-12 -4 14 -14 45 -8 50 8 3 7 -7 17 -22 23 -15 6 -23 15 -20 21 4 6 14 8 22 5
8 -3 11 -1 8 4 -7 11 -13 11 -32 3z"/>
<path d="M1125 1201 c-3 -6 0 -8 8 -5 8 3 18 1 22 -5 3 -6 -5 -15 -20 -21 -33
-13 -28 -35 9 -36 25 -1 27 2 24 35 -3 36 -28 55 -43 32z m28 -52 c-6 -6 -17
-8 -24 -3 -9 5 -8 9 7 14 23 9 31 3 17 -11z"/>
<path d="M1236 1194 c-9 -8 -16 -21 -16 -28 0 -29 51 -49 65 -26 4 7 -2 9 -19
4 -16 -4 -26 -2 -26 5 0 6 11 11 25 11 27 0 33 18 13 38 -16 16 -23 15 -42 -4z
m42 -12 c2 -7 -6 -12 -17 -12 -21 0 -27 11 -14 24 9 9 26 2 31 -12z"/>
<path d="M1314 1195 c-7 -18 3 -35 22 -35 8 0 14 -5 14 -11 0 -6 -9 -9 -20 -6
-11 3 -20 1 -20 -5 0 -5 10 -8 22 -6 30 4 35 34 8 41 -11 3 -20 10 -20 17 0 7
8 9 21 5 15 -5 19 -4 15 4 -10 16 -36 14 -42 -4z"/>
<path d="M1480 1200 c-12 -8 -10 -10 9 -8 19 2 24 -2 26 -20 1 -13 -4 -26 -12
-29 -20 -8 -30 6 -13 17 12 8 12 10 -3 10 -30 0 -16 -35 16 -38 24 -3 27 0 27
25 0 26 -15 53 -29 53 -4 0 -13 -5 -21 -10z"/>
<path d="M1550 1205 c0 -6 5 -16 11 -22 8 -8 8 -17 -1 -34 -10 -23 -10 -23 4
-5 14 17 16 17 22 3 3 -10 11 -17 16 -17 6 0 5 6 -2 15 -7 8 -10 24 -7 36 4
16 3 18 -8 9 -10 -8 -16 -7 -24 7 -6 10 -11 13 -11 8z"/>
<path d="M1705 1199 c-5 -8 -1 -9 14 -4 13 4 21 2 21 -5 0 -7 -9 -14 -20 -17
-31 -8 -26 -43 6 -43 23 0 25 3 22 37 -3 38 -28 57 -43 32z m35 -44 c0 -8 -7
-15 -15 -15 -26 0 -18 20 13 29 1 1 2 -6 2 -14z"/>
<path d="M1773 1196 c4 -10 10 -29 13 -42 8 -32 20 -30 29 4 l7 27 13 -30 13
-30 11 28 c15 39 13 57 -3 28 l-13 -24 -7 27 c-7 30 -26 26 -26 -5 0 -10 -4
-19 -10 -19 -5 0 -10 9 -10 19 0 11 -5 23 -12 27 -8 5 -9 2 -5 -10z"/>
<path d="M1903 1203 c-20 -7 -15 -31 7 -38 26 -8 26 -29 0 -22 -11 3 -18 1
-14 -4 9 -15 41 -10 48 6 4 11 -3 19 -20 25 -14 6 -22 15 -19 21 4 6 14 8 22
5 8 -3 11 -1 8 4 -7 11 -13 11 -32 3z"/>
<path d="M3641 823 c-5 -10 -5 -36 -1 -58 l8 -40 2 35 c1 19 3 45 4 58 3 27 0
28 -13 5z"/>
<path d="M1060 805 c-5 -14 -12 -38 -16 -53 -4 -23 -3 -24 6 -9 6 9 18 17 27
17 9 0 22 -8 30 -17 10 -13 13 -14 9 -3 -2 8 -10 32 -17 53 -14 43 -26 47 -39
12z m30 -21 c0 -8 -6 -14 -14 -14 -9 0 -12 7 -9 20 6 22 23 18 23 -6z"/>
<path d="M1597 817 c-7 -19 4 -33 31 -41 12 -4 22 -12 22 -17 0 -17 -30 -22
-47 -8 -14 12 -16 12 -11 -1 3 -9 17 -15 34 -15 22 0 30 5 32 21 2 16 -4 24
-28 33 -36 12 -31 35 6 28 13 -2 21 0 18 4 -8 14 -51 10 -57 -4z"/>
<path d="M1763 780 c0 -30 2 -43 4 -27 2 15 2 39 0 55 -2 15 -4 2 -4 -28z"/>
<path d="M2873 780 c0 -30 2 -43 4 -27 2 15 2 39 0 55 -2 15 -4 2 -4 -28z"/>
<path d="M3270 815 c0 -8 -6 -12 -13 -9 -19 7 -39 -20 -35 -48 2 -17 11 -24
31 -26 26 -3 27 -2 27 47 0 28 -2 51 -5 51 -3 0 -5 -7 -5 -15z m-2 -48 c2 -19
-1 -27 -13 -27 -19 0 -30 24 -21 46 9 23 31 11 34 -19z"/>
<path d="M1258 815 c-10 -11 8 -79 22 -82 12 -4 13 -3 1 5 -9 6 -12 21 -9 41
4 30 -3 47 -14 36z"/>
<path d="M1388 815 c-10 -11 8 -79 22 -82 12 -4 13 -3 1 5 -9 6 -12 21 -9 41
4 30 -3 47 -14 36z"/>
<path d="M1992 778 c2 -23 9 -43 16 -46 11 -3 11 -1 0 17 -10 16 -10 25 -1 40
10 16 9 20 -3 25 -12 5 -15 -2 -12 -36z"/>
<path d="M3097 813 c-6 -11 4 -83 12 -83 7 0 6 78 -2 86 -3 3 -7 2 -10 -3z"/>
<path d="M1141 797 c-26 -26 2 -76 35 -63 10 4 14 2 11 -6 -2 -7 -14 -13 -26
-12 -13 0 -18 -3 -12 -9 5 -5 17 -7 27 -5 15 2 20 14 22 53 3 47 1 50 -22 51
-13 1 -29 -3 -35 -9z m46 -41 c-4 -9 -13 -16 -21 -16 -19 0 -29 30 -15 47 11
12 14 12 27 -1 8 -8 12 -22 9 -30z"/>
<path d="M1223 770 c0 -25 2 -35 4 -22 2 12 2 32 0 45 -2 12 -4 2 -4 -23z"/>
<path d="M1315 801 c-3 -6 0 -8 8 -5 8 3 18 1 22 -5 3 -6 -5 -15 -20 -21 -30
-11 -29 -33 1 -38 19 -4 19 -4 0 11 -18 14 -18 14 2 19 16 4 22 0 25 -16 3
-11 4 -3 4 19 -2 28 -7 41 -19 43 -9 2 -19 -2 -23 -7z"/>
<path d="M1442 798 c-25 -25 -6 -68 30 -68 10 0 18 4 18 9 0 5 -8 7 -19 4 -10
-3 -22 0 -25 6 -5 7 2 11 17 11 31 0 38 9 26 31 -11 22 -30 24 -47 7z m36 -16
c2 -7 -6 -12 -17 -12 -21 0 -27 11 -14 24 9 9 26 2 31 -12z"/>
<path d="M1690 800 c-12 -8 -10 -10 9 -8 18 2 24 -3 27 -20 3 -14 -2 -25 -11
-29 -22 -8 -33 6 -15 17 12 8 12 10 -3 10 -30 0 -16 -35 16 -38 25 -3 27 -1
27 31 0 23 -6 37 -16 41 -19 7 -16 8 -34 -4z"/>
<path d="M1802 798 c-25 -25 -6 -68 30 -68 10 0 18 4 18 9 0 5 -8 7 -19 4 -10
-3 -22 0 -25 6 -5 7 2 11 18 11 30 0 42 16 26 35 -15 18 -32 19 -48 3z m38
-19 c0 -5 -7 -9 -15 -9 -15 0 -20 12 -9 23 8 8 24 -1 24 -14z"/>
<path d="M1884 795 c-7 -18 3 -35 22 -35 8 0 14 -5 14 -11 0 -7 -10 -9 -26 -5
-17 5 -23 3 -19 -4 8 -14 42 -13 51 2 4 7 -2 18 -14 26 -28 19 -28 35 -1 27
15 -5 19 -4 15 4 -10 16 -36 14 -42 -4z"/>
<path d="M2050 799 c-12 -8 -10 -9 8 -4 14 4 22 2 22 -5 0 -7 -9 -14 -20 -17
-11 -3 -20 -14 -20 -24 0 -14 7 -19 30 -19 26 0 30 4 30 28 0 25 -15 52 -29
52 -4 0 -13 -5 -21 -11z m35 -50 c-8 -12 -35 -12 -35 0 0 11 22 20 33 14 4 -2
5 -9 2 -14z"/>
<path d="M2274 795 c-7 -18 3 -35 22 -35 8 0 14 -5 14 -11 0 -6 -9 -9 -20 -6
-11 3 -20 1 -20 -4 0 -13 38 -11 46 3 4 7 -2 18 -14 26 -28 19 -28 35 -1 27
15 -5 19 -4 15 4 -10 16 -36 14 -42 -4z"/>
<path d="M2390 799 c-12 -8 -10 -9 8 -4 14 4 22 2 22 -5 0 -7 -9 -14 -20 -17
-11 -3 -20 -14 -20 -24 0 -14 7 -19 30 -19 26 0 30 4 30 28 0 25 -15 52 -29
52 -4 0 -13 -5 -21 -11z m30 -44 c0 -8 -7 -15 -15 -15 -26 0 -18 20 13 29 1 1
2 -6 2 -14z"/>
<path d="M2506 794 c-19 -18 -19 -20 -6 -45 11 -20 45 -26 55 -9 4 7 -3 8 -20
4 -25 -6 -26 -4 -23 22 2 20 8 29 20 28 10 -1 15 2 12 7 -8 13 -21 11 -38 -7z"/>
<path d="M2580 795 c-24 -29 8 -75 44 -62 30 12 14 77 -20 77 -6 0 -17 -7 -24
-15z m45 -26 c0 -28 -29 -38 -39 -13 -7 19 11 47 28 41 6 -2 11 -14 11 -28z"/>
<path d="M2661 767 c2 -41 2 -41 8 -9 8 42 24 42 31 0 l6 -33 6 35 c7 41 6 42
-27 45 -23 3 -25 1 -24 -38z"/>
<path d="M2737 799 c6 -8 13 -27 16 -44 4 -23 4 -20 3 9 -1 25 -6 41 -16 44
-12 4 -13 2 -3 -9z"/>
<path d="M2781 754 c1 -32 4 -49 6 -38 3 15 10 20 22 17 28 -7 46 22 33 52 -7
14 -17 25 -23 25 -8 0 -6 -7 5 -19 19 -21 11 -54 -13 -49 -10 2 -16 13 -16 30
0 14 -3 30 -7 34 -5 4 -7 -19 -7 -52z"/>
<path d="M2903 770 c0 -25 2 -35 4 -22 2 12 2 32 0 45 -2 12 -4 2 -4 -23z"/>
<path d="M2940 796 c-17 -22 -5 -66 20 -66 10 0 21 4 24 8 3 5 -5 8 -17 8 -24
-1 -36 29 -18 47 7 7 15 6 27 -4 15 -12 17 -12 12 1 -7 21 -32 24 -48 6z"/>
<path d="M3020 800 c-12 -8 -10 -10 9 -8 19 2 24 -2 26 -20 1 -13 -4 -26 -12
-29 -20 -8 -30 6 -13 17 12 8 12 10 -3 10 -30 0 -16 -35 16 -38 24 -3 27 0 27
25 0 26 -15 53 -29 53 -4 0 -13 -5 -21 -10z"/>
<path d="M3150 796 c-27 -33 12 -88 42 -58 6 6 0 8 -16 5 -15 -3 -26 -1 -26 6
0 6 11 11 25 11 29 0 36 34 9 44 -21 8 -20 8 -34 -8z m38 -14 c2 -7 -6 -12
-17 -12 -21 0 -27 11 -14 24 9 9 26 2 31 -12z"/>
<path d="M3396 794 c-9 -8 -16 -21 -16 -28 0 -29 51 -49 65 -26 4 7 -2 9 -18
5 -17 -5 -26 -2 -31 11 -8 21 12 47 31 40 8 -3 11 -1 8 4 -9 14 -21 12 -39 -6z"/>
<path d="M3472 798 c-25 -25 -6 -68 30 -68 22 0 35 45 18 65 -15 18 -32 19
-48 3z m46 -32 c-4 -25 -36 -34 -44 -12 -8 21 13 46 32 39 8 -3 14 -15 12 -27z"/>
<path d="M3551 766 l2 -41 6 35 c4 22 12 35 21 35 9 0 17 -13 21 -35 l6 -35 2
31 c1 34 -13 51 -41 51 -14 0 -18 -9 -17 -41z"/>
<path d="M3683 775 c2 -36 5 -40 30 -41 25 -1 27 1 26 40 l-2 41 -6 -35 c-4
-22 -12 -35 -21 -35 -9 0 -18 13 -22 35 l-6 35 1 -40z"/>
<path d="M3773 803 c-20 -7 -15 -31 7 -38 27 -9 26 -29 -1 -22 -15 4 -19 3
-12 -4 14 -14 45 -8 50 8 3 7 -7 17 -22 23 -15 6 -23 15 -20 21 4 6 14 8 22 5
8 -3 11 -1 8 4 -7 11 -13 11 -32 3z"/>
<path d="M3871 766 l2 -41 6 35 c4 22 12 35 21 35 9 0 17 -13 21 -35 l6 -35 2
31 c1 34 -13 51 -41 51 -14 0 -18 -9 -17 -41z"/>
<path d="M3960 796 c-19 -24 -9 -61 18 -60 13 0 22 -5 22 -14 0 -10 -8 -13
-26 -9 -16 3 -22 1 -16 -5 6 -6 18 -8 28 -6 24 4 33 86 12 99 -18 12 -24 11
-38 -5z m35 -26 c0 -13 -6 -25 -12 -27 -16 -6 -27 21 -19 43 9 23 31 11 31
-16z"/>
<path d="M2129 783 c6 -13 14 -23 16 -23 2 0 10 10 16 23 11 19 10 20 -3 10
-11 -10 -17 -10 -27 0 -11 10 -11 8 -2 -10z"/>
<path d="M2233 765 c0 -22 2 -30 4 -17 2 12 2 30 0 40 -3 9 -5 -1 -4 -23z"/>
<path d="M3843 765 c0 -22 2 -30 4 -17 2 12 2 30 0 40 -3 9 -5 -1 -4 -23z"/>
<path d="M2127 753 c-4 -3 -7 -11 -7 -17 0 -6 5 -5 12 2 6 6 9 14 7 17 -3 3
-9 2 -12 -2z"/>
<path d="M2150 751 c0 -5 5 -13 10 -16 6 -3 10 -2 10 4 0 5 -4 13 -10 16 -5 3
-10 2 -10 -4z"/>
<path d="M3311 724 c0 -11 3 -14 6 -6 3 7 2 16 -1 19 -3 4 -6 -2 -5 -13z"/>
</g>
</svg>
